<svg xmlns="http://www.w3.org/2000/svg" version="1.1" xmlns:xlink="http://www.w3.org/1999/xlink" width="26" height="24"><svg width="26" height="24" viewBox="0 0 26 24" fill="none" xmlns="http://www.w3.org/2000/svg">
<path d="M25.0597 0.108887H0.109009V23.8907L25.0597 23.8907L25.0597 0.108887ZM23.8777 11.9764H20.9029C19.977 11.8169 19.317 10.5598 20.0262 10.0157C20.6665 9.56534 21.0901 8.84298 21.0901 8.03618C21.0901 6.68526 19.9573 5.6064 18.5389 5.6064C17.1204 5.6064 15.9876 6.68526 15.9876 8.03618C15.9876 8.84298 16.4112 9.56534 17.0515 10.0157C17.7607 10.5785 17.1007 11.8638 16.1058 11.9764H12.5794V8.61782V8.57092C12.5794 7.65154 11.23 6.97608 10.6685 7.6234C10.2449 8.18628 9.53572 8.57092 8.75754 8.57092C7.45731 8.57092 6.39348 7.55773 6.39348 6.31938C6.39348 5.08104 7.45731 4.06785 8.75754 4.06785C9.56527 4.06785 10.2449 4.45249 10.6685 5.01537C11.2398 5.67207 12.5794 4.96846 12.5794 4.09599V1.23467H23.8777V11.9764ZM1.29104 12.0233H4.24612C5.17205 12.1828 5.83201 13.4399 5.1228 13.984C4.48253 14.4343 4.05897 15.1567 4.05897 15.9635C4.05897 17.3144 5.19175 18.3932 6.61019 18.3932C8.02862 18.3932 9.1614 17.3144 9.1614 15.9635C9.1614 15.1567 8.73784 14.4343 8.09758 13.984C7.38836 13.4211 8.04832 12.1171 9.0432 12.0233H12.5696V15.3818V15.4287C12.5696 16.3481 13.9191 17.0236 14.4805 16.3762C14.9041 15.8134 15.6133 15.4287 16.3915 15.4287C17.6917 15.4287 18.7556 16.4419 18.7556 17.6802C18.7556 18.9186 17.6917 19.9318 16.3915 19.9318C15.5838 19.9318 14.9041 19.5471 14.4805 18.9843C13.9092 18.3276 12.5696 19.0312 12.5696 19.9036V22.765H1.29104V12.0233Z" fill="#F24E55"></path>
</svg><style>@media (prefers-color-scheme: light) { :root { filter: none; } }
@media (prefers-color-scheme: dark) { :root { filter: none; } }
</style></svg>