<svg width="24" height="216" viewBox="0 0 24 216" fill="none" xmlns="http://www.w3.org/2000/svg">
<path d="M19 205H13V211H11V205H5V203H11V197H13V203H19V205Z" fill="#7C6C6C"/>
<path fill-rule="evenodd" clip-rule="evenodd" d="M15.5 172H19V174H5V172H8.5L9.5 171H14.5L15.5 172ZM8 189C6.89543 189 6 188.105 6 187V175H18V187C18 188.105 17.1046 189 16 189H8Z" fill="#7C6C6C"/>
<path fill-rule="evenodd" clip-rule="evenodd" d="M20.71 149.632C21.1 150.003 21.1 150.653 20.71 151.043L18.87 152.872L15.12 149.122L16.96 147.292C17.35 146.903 18 146.903 18.37 147.292L20.71 149.632ZM3 165.002V161.252L14.06 150.182L17.81 153.932L6.75 165.002H3Z" fill="#7C6C6C"/>
<path d="M17 128.007L15.9929 127L12 130.993L8.00714 127L7 128.007L10.9929 132L7 135.993L8.00714 137L12 133.007L15.9929 137L17 135.993L13.0071 132L17 128.007Z" fill="#7C6C6C"/>
<path fill-rule="evenodd" clip-rule="evenodd" d="M5 99H19C20.1 99 21 99.89 21 101V115C21 116.105 20.1046 117 19 117H5C3.89543 117 3 116.105 3 115V111H5V115H19V101H5V105H3V101C3 99.89 3.89 99 5 99ZM11.5 113L10.08 111.58L12.67 109H3V107H12.67L10.08 104.41L11.5 103L16.5 108L11.5 113Z" fill="#118236"/>
<path d="M7.41 80.58L12 85.17L16.59 80.58L18 82L12 88L6 82L7.41 80.58Z" fill="#7C6C6C"/>
<path d="M5 69H19V67H5V69ZM19 58H15V52H9V58H5L12 65L19 58Z" fill="#7C6C6C"/>
<path d="M13 33V27.5L18.5 33H13ZM6 26C4.89 26 4 26.89 4 28V44C4 45.1046 4.89543 46 6 46H18C19.1046 46 20 45.1046 20 44V32L14 26H6Z" fill="#7C6C6C"/>
<path d="M12.0491 7.27851L3.62344 14.1359C3.62344 14.1456 3.62097 14.1598 3.61605 14.1792C3.61122 14.1985 3.60866 14.2125 3.60866 14.2224V22.0924H10.1733V16.5372H13.925V22.0926H20.4898V14.2224C20.4898 14.1839 20.4845 14.1548 20.4751 14.1359L12.0491 7.27851Z" fill="white"/>
<path d="M23.647 12.5735L20.4381 9.94055L20.4329 3.5827L16.6868 3.57531C16.6868 4.67695 16.6868 6.85911 16.6868 6.85911L11.99 3L0 12.8699L1.48181 14.6163L11.9976 6.00558L22.4859 14.6287L23.706 13.2245C23.7841 13.1279 24 12.8553 24 12.8553C24 12.8553 23.7445 12.6506 23.647 12.5735Z" fill="white"/>
</svg>
