<svg width="24" height="2592" viewBox="0 0 24 2592" fill="none" xmlns="http://www.w3.org/2000/svg">
<path d="M6 2584.5L3 2587.44V2579H6M11 2582.66L9.43 2581.32L8 2582.64V2575H11M16 2581L13 2584V2571H16M18.81 2580.81L17 2579H22V2584L20.21 2582.21L13 2589.36L9.53 2586.34L5.75 2590H3L9.47 2583.66L13 2586.64" fill="white"/>
<path fill-rule="evenodd" clip-rule="evenodd" d="M15.7171 2546C15.9355 2546 16.1235 2546.07 16.2865 2546.23L18.6623 2548.5C18.8163 2548.65 18.8915 2548.84 18.8951 2549.06C18.8987 2549.28 18.8342 2549.47 18.6838 2549.63L17.4198 2550.94L13.9088 2547.55L15.1603 2546.25C15.3143 2546.09 15.5005 2546 15.7171 2546ZM4.59691 2558.23C5.02661 2558.09 5.47958 2558.34 5.61207 2558.76C5.74456 2559.19 5.50285 2559.65 5.07495 2559.78C3.82524 2560.16 2.98734 2560.9 2.70982 2561.6C2.63642 2561.79 2.61135 2561.96 2.64 2562.1C2.66148 2562.2 2.72594 2562.3 2.83157 2562.37C3.28812 2562.71 4.27106 2562.79 5.92181 2562.39C6.89937 2562.15 7.94676 2561.83 8.87419 2561.55C9.82131 2561.25 10.6485 2561 11.2232 2560.89C12.2831 2560.69 13.3413 2560.56 14.1953 2560.6C15.3161 2560.66 16.1576 2561.02 16.4458 2561.88C16.632 2562.44 16.5801 2562.92 16.5335 2563.35C16.5174 2563.51 16.5013 2563.65 16.5085 2563.75C16.5085 2563.75 16.6786 2563.74 17.4986 2563.67C18.4475 2563.6 19.4304 2563.23 20.4008 2562.85C20.8986 2562.66 21.3927 2562.48 21.9531 2562.31C22.3828 2562.17 22.8358 2562.42 22.9647 2562.85C23.0954 2563.28 22.8519 2563.73 22.424 2563.86C21.9889 2563.99 21.4858 2564.18 20.9809 2564.37C19.8995 2564.79 18.8074 2565.2 17.6257 2565.3C15.4647 2565.47 14.9634 2564.86 14.8864 2563.87C14.8685 2563.64 14.8917 2563.42 14.9168 2563.18C14.9455 2562.91 14.9777 2562.61 14.9043 2562.39C14.872 2562.3 14.5659 2562.25 14.1183 2562.22C13.4039 2562.19 12.4675 2562.31 11.515 2562.49C11.0406 2562.58 10.2528 2562.82 9.35044 2563.1C8.40689 2563.39 7.3416 2563.72 6.30317 2563.97C4.12961 2564.5 2.68476 2564.27 1.87549 2563.68C1.42073 2563.35 1.15038 2562.92 1.04654 2562.43C0.949854 2561.98 1.00536 2561.49 1.19872 2561C1.63916 2559.9 2.85126 2558.76 4.59691 2558.23ZM8.39078 2554.67L10.5446 2556.75L7.91095 2557.45C7.81606 2557.47 7.77846 2557.43 7.79457 2557.35L8.39078 2554.67ZM12.7952 2548.71L16.3026 2552.08L11.5115 2557.14L7.21806 2558.29C7.06409 2558.32 7.00321 2558.26 7.02828 2558.12L8.00047 2553.76L12.7952 2548.71Z" fill="white"/>
<path d="M3 2533H15V2531H3M3 2526V2528H21V2526M3 2538H9V2536H3V2538Z" fill="white"/>
<path d="M3 2507H15V2509H3M3 2514V2512H21V2514M3 2502H9V2504H3V2502Z" fill="white"/>
<path d="M10 2477V2482H9V2477H5V2485H9V2484H10V2489H9V2486H5V2491H12V2489H13V2491H19V2489H21V2493H3V2475H21V2487H19V2482H13V2487H12V2481H19V2477H10Z" fill="white"/>
<path d="M12.87 2463.07L10.33 2460.56L10.36 2460.53C12.1 2458.59 13.34 2456.36 14.07 2454H17V2452H10V2450H8V2452H1V2454H12.17C11.5 2455.92 10.44 2457.75 9 2459.35C8.07 2458.32 7.3 2457.19 6.69 2456H4.69C5.42 2457.63 6.42 2459.17 7.67 2460.56L2.58 2465.58L4 2467L9 2462L12.11 2465.11L12.87 2463.07ZM18.5 2458H16.5L12 2470H14L15.12 2467H19.87L21 2470H23L18.5 2458ZM15.88 2465L17.5 2460.67L19.12 2465H15.88Z" fill="white"/>
<path fill-rule="evenodd" clip-rule="evenodd" d="M16.8375 2432.46C17.0541 2432.67 17.0541 2433.03 16.8375 2433.24L15.8154 2434.26L13.7324 2432.18L14.7545 2431.16C14.9711 2430.94 15.3322 2430.94 15.5377 2431.16L16.8375 2432.46ZM7 2441V2438.91L13.1436 2432.77L15.2266 2434.85L9.08304 2441H7Z" fill="white"/>
<path d="M14 2401.78H6C4.89543 2401.78 4 2402.69 4 2403.8V2419.96C4 2421.08 4.89543 2421.98 6 2421.98H13C12.59 2421.73 12.2 2421.41 11.86 2421.07C9.22 2418.62 9.05 2414.47 11.5 2411.8C13.69 2409.36 17.33 2408.98 20 2410.87V2407.84L14 2401.78ZM13 2408.85V2403.3L18.5 2408.85H13ZM18.3815 2415.52C18.3815 2415.07 18.2399 2414.68 17.9566 2414.35C17.6734 2414.02 17.2486 2413.86 16.6821 2413.86C16.4046 2413.86 16.1503 2413.9 15.9191 2413.99C15.6879 2414.08 15.4855 2414.2 15.3121 2414.35C15.1387 2414.5 15 2414.68 14.896 2414.88C14.7919 2415.09 14.7341 2415.3 14.7225 2415.52H18.3815ZM21 2416.63V2416.98C21 2417.09 20.9942 2417.21 20.9827 2417.31H14.7225C14.7457 2417.56 14.8179 2417.78 14.9393 2417.98C15.0607 2418.17 15.2168 2418.35 15.4075 2418.49C15.5983 2418.64 15.8121 2418.75 16.0491 2418.83C16.2861 2418.92 16.5318 2418.96 16.7861 2418.96C17.237 2418.96 17.6185 2418.87 17.9306 2418.7C18.2428 2418.53 18.4971 2418.31 18.6936 2418.05L20.6705 2419.31C20.2659 2419.9 19.7312 2420.36 19.0665 2420.68C18.4017 2421 17.6301 2421.16 16.7514 2421.16C16.104 2421.16 15.4913 2421.06 14.9133 2420.86C14.3353 2420.65 13.8295 2420.35 13.396 2419.96C12.9624 2419.57 12.6214 2419.09 12.3728 2418.52C12.1243 2417.95 12 2417.29 12 2416.56C12 2415.84 12.1214 2415.2 12.3642 2414.62C12.6069 2414.04 12.9364 2413.55 13.3526 2413.15C13.7688 2412.75 14.2601 2412.44 14.8266 2412.21C15.3931 2411.99 16.0058 2411.88 16.6647 2411.88C17.3006 2411.88 17.8844 2411.99 18.4162 2412.21C18.948 2412.42 19.4046 2412.73 19.7861 2413.14C20.1676 2413.55 20.4653 2414.05 20.6792 2414.63C20.8931 2415.21 21 2415.88 21 2416.63Z" fill="white"/>
<path d="M14.8725 2383H20.3186L14.8725 2377.5V2383ZM7.94118 2376H15.8627L21.8039 2382V2394C21.8039 2395.1 20.9173 2396 19.8235 2396H7.94118C6.84206 2396 5.96078 2395.1 5.96078 2394V2378C5.96078 2376.9 6.84744 2376 7.94118 2376ZM3.98039 2380V2398H19.8235V2400H3.98039C2.88665 2400 2 2399.1 2 2398V2380H3.98039Z" fill="white"/>
<path d="M8 2359.04C8 2356.81 9.79 2355 12 2355C14.21 2355 16 2356.81 16 2359.04C16 2361.27 14.21 2363.08 12 2363.08C9.79 2363.08 8 2361.27 8 2359.04ZM12 2365.1C7.58 2365.1 4 2366.91 4 2369.14V2371.16H15.09C15.04 2370.83 15 2370.49 15 2370.15C15 2368.49 15.66 2366.99 16.74 2365.89C15.41 2365.39 13.78 2365.1 12 2365.1Z" fill="white"/>
<path fill-rule="evenodd" clip-rule="evenodd" d="M20 2369.14V2367.12L17 2370.15L20 2373.18V2371.16H24V2369.14H20Z" fill="white"/>
<path d="M11 2344.13L14 2347.16H4V2345.14C4 2342.91 7.58 2341.1 12 2341.1L13.89 2341.21L11 2344.13ZM12 2331C14.2091 2331 16 2332.81 16 2335.04C16 2337.27 14.2091 2339.08 12 2339.08C9.79086 2339.08 8 2337.27 8 2335.04C8 2332.81 9.79086 2331 12 2331Z" fill="white"/>
<path fill-rule="evenodd" clip-rule="evenodd" d="M22.1 2339.58L23.5 2341.01L16.97 2347.66L13.5 2344.13L14.9 2342.7L16.97 2344.81L22.1 2339.58Z" fill="white"/>
<path fill-rule="evenodd" clip-rule="evenodd" d="M6.54 2309.57C7.69 2308.07 10.59 2307 14 2307C18.42 2307 22 2308.79 22 2311C22 2313.21 18.42 2315 14 2315C13.22 2315 12.5 2314.93 11.79 2314.82L6.54 2309.57ZM4.5 2312.5L5.92 2311.08L10.84 2316L5.92 2320.92L4.5 2319.5L7 2317H2V2315H7L4.5 2312.5ZM22 2313C22 2315.21 18.42 2317 14 2317C13.34 2317 12.7 2316.95 12.09 2316.87L9.62 2319.34C10.88 2319.75 12.38 2320 14 2320C18.42 2320 22 2318.21 22 2316V2313ZM14 2322C18.42 2322 22 2320.21 22 2318V2321C22 2323.21 18.42 2325 14 2325C10.59 2325 7.68 2323.93 6.53 2322.43L8.21 2320.75C9.67 2321.5 11.72 2322 14 2322Z" fill="white"/>
<path fill-rule="evenodd" clip-rule="evenodd" d="M10.25 2290L6 2285.75L1.75 2290H5V2296C5 2297.1 5.89543 2298 7 2298H15.5L13.5 2296H7V2290H10.25ZM13.75 2294L18 2298.25L22.25 2294H19V2288C19 2286.9 18.1046 2286 17 2286H8.5L10.5 2288H17V2294H13.75Z" fill="white"/>
<path fill-rule="evenodd" clip-rule="evenodd" d="M18.46 2270.57L20.79 2269.95L21.3 2271.88L19.53 2272.35L20 2274.12L18.12 2274.63L17.5 2272.3L15.5 2271.17L13 2272.62V2274.88L14.7 2276.59L13.29 2278L12 2276.71L10.71 2278L9.29001 2276.59L11 2274.88V2272.62L8.55001 2271.18L6.55001 2272.31L5.93001 2274.64L4.00001 2274.12L4.47001 2272.36L2.70001 2271.89L3.22001 2269.96L5.55001 2270.58L7.55001 2269.45V2266.56L5.55001 2265.43L3.22001 2266.05L2.70001 2264.12L4.47001 2263.65L4.00001 2261.88L5.92001 2261.36L6.50001 2263.69L8.50001 2264.82L11 2263.38V2261.12L9.29001 2259.41L10.71 2258L12 2259.29L13.29 2258L14.71 2259.41L13 2261.12V2263.38L15.45 2264.82L17.45 2263.69L18.07 2261.36L20 2261.88L19.54 2263.65L21.31 2264.12L20.79 2266.05L18.46 2265.43L16.46 2266.56V2269.44L18.46 2270.57ZM12 2265.11L9.50001 2266.56V2269.44L12 2270.89L14.5 2269.44V2266.56L12 2265.11Z" fill="white"/>
<path fill-rule="evenodd" clip-rule="evenodd" d="M4 2236C4 2234.89 4.89 2234 6 2234H14L20 2240V2252C20 2253.1 19.1046 2254 18 2254H6C4.89543 2254 4 2253.1 4 2252V2248.32L4.63158 2249.58H6.84211C7.24 2250.68 7.92211 2251.59 8.90105 2252.3C9.88 2253.01 10.9789 2253.37 12.2105 2253.37C12.7916 2253.37 13.4737 2253.22 14.2126 2252.94C14.9516 2252.65 15.5579 2252.31 16 2251.92L14.8632 2250.79C14.1053 2251.47 13.2084 2251.79 12.2105 2251.79C11.5095 2251.79 10.8084 2251.58 10.1011 2251.16C9.39368 2250.73 8.87579 2250.19 8.56 2249.58H12.8232L12.2105 2248.32H8.14316C8.10526 2248.03 8.08632 2247.82 8.08632 2247.68C8.08632 2247.55 8.10526 2247.34 8.14316 2247.05H12.8232L12.2105 2245.79H8.56C8.87579 2245.18 9.38737 2244.65 10.1011 2244.21C10.8147 2243.77 11.5095 2243.58 12.2105 2243.58C13.2084 2243.58 14.1053 2243.89 14.8632 2244.58L16 2243.45C14.9263 2242.49 13.6632 2242 12.2105 2242C10.9789 2242 9.87368 2242.35 8.90105 2243.07C7.92842 2243.78 7.24 2244.68 6.84211 2245.79H4V2236ZM4 2245.79L4.63158 2247.05H6.54526C6.52632 2247.18 6.52632 2247.39 6.52632 2247.68C6.52632 2247.98 6.52632 2248.19 6.54526 2248.32H4V2245.79ZM13 2241V2235.5L18.5 2241H13Z" fill="white"/>
<path fill-rule="evenodd" clip-rule="evenodd" d="M12 2211C10.19 2211 8.5 2211.5 7.03 2212.32L9.13 2213.53C10 2213.19 11 2213 12 2213C16.42 2213 20 2216.58 20 2221C20 2223.21 19.11 2225.21 17.66 2226.65H17.65C17.26 2227.04 17.26 2227.67 17.65 2228.06C18.04 2228.45 18.68 2228.45 19.07 2228.07C20.88 2226.26 22 2223.76 22 2221C22 2215.5 17.5 2211 12 2211ZM12 2224C13.66 2224 15 2222.66 15 2221C15 2219.88 14.39 2218.9 13.5 2218.39L3.79 2212.77L9.32 2222.35C9.82 2223.33 10.83 2224 12 2224ZM4.93 2228.07C3.12 2226.26 2 2223.76 2 2221C2 2219.18 2.5 2217.5 3.33 2216L4.54 2218.1C4.19 2219 4 2220 4 2221C4 2223.21 4.89 2225.2 6.34 2226.65C6.73 2227.04 6.73 2227.67 6.34 2228.06C5.95 2228.45 5.32 2228.45 4.93 2228.07Z" fill="white"/>
<path fill-rule="evenodd" clip-rule="evenodd" d="M3 2190H21V2192H3V2190ZM3 2195H21V2197H3V2195ZM21 2200H3V2202H21V2200Z" fill="white"/>
<path fill-rule="evenodd" clip-rule="evenodd" d="M16.06 2175C16.69 2174.38 17.55 2174 18.5 2174C20.43 2174 22 2175.57 22 2177.5C22 2179.43 20.43 2181 18.5 2181C17.11 2181 15.91 2180.18 15.35 2179H9.65C9.09 2180.18 7.89 2181 6.5 2181C4.57 2181 3 2179.43 3 2177.5C3 2175.57 4.57 2174 6.5 2174C6.64661 2174 6.78659 2174.02 6.91453 2174.04L6.91455 2174.04C6.94368 2174.04 6.97218 2174.05 7 2174.05L4.26 2165H2V2163H5.74L9.39 2175H16.06ZM5 2177.5C5 2178.33 5.67 2179 6.5 2179C7.33 2179 8 2178.33 8 2177.5C8 2176.67 7.33 2176 6.5 2176C5.67 2176 5 2176.67 5 2177.5ZM18.5 2179C17.67 2179 17 2178.33 17 2177.5C17 2176.67 17.67 2176 18.5 2176C19.33 2176 20 2176.67 20 2177.5C20 2178.33 19.33 2179 18.5 2179ZM9.53 2172L10.13 2174H15L14.55 2173.11C14.21 2172.43 13.5 2172 12.76 2172H9.53Z" fill="white"/>
<path fill-rule="evenodd" clip-rule="evenodd" d="M17 2144H20L23 2148V2153H21C21 2154.66 19.6569 2156 18 2156C16.3431 2156 15 2154.66 15 2153H9C9 2154.66 7.65685 2156 6 2156C4.34315 2156 3 2154.66 3 2153H1V2142C1 2140.89 1.89 2140 3 2140H17V2144ZM21.46 2148L19.5 2145.5H17V2148H21.46ZM16.5 2153C16.5 2153.83 17.1716 2154.5 18 2154.5C18.8284 2154.5 19.5 2153.83 19.5 2153C19.5 2152.17 18.8284 2151.5 18 2151.5C17.1716 2151.5 16.5 2152.17 16.5 2153ZM6 2154.5C5.17157 2154.5 4.5 2153.83 4.5 2153C4.5 2152.17 5.17157 2151.5 6 2151.5C6.82843 2151.5 7.5 2152.17 7.5 2153C7.5 2153.83 6.82843 2154.5 6 2154.5Z" fill="white"/>
<path fill-rule="evenodd" clip-rule="evenodd" d="M17.5 2116C18.16 2116 18.72 2116.42 18.92 2117L21 2123V2131C21 2131.55 20.5523 2132 20 2132H19C18.4477 2132 18 2131.55 18 2131V2130H6V2131C6 2131.55 5.55228 2132 5 2132H4C3.44772 2132 3 2131.55 3 2131V2123L5.08 2117C5.28 2116.42 5.84 2116 6.5 2116H17.5ZM6.5 2117.5L5 2122H19L17.5 2117.5H6.5ZM16 2125.5C16 2126.33 16.6716 2127 17.5 2127C18.3284 2127 19 2126.33 19 2125.5C19 2124.67 18.3284 2124 17.5 2124C16.6716 2124 16 2124.67 16 2125.5ZM6.5 2127C5.67157 2127 5 2126.33 5 2125.5C5 2124.67 5.67157 2124 6.5 2124C7.32843 2124 8 2124.67 8 2125.5C8 2126.33 7.32843 2127 6.5 2127Z" fill="white"/>
<path fill-rule="evenodd" clip-rule="evenodd" d="M6 2091H3V2093H5.59L7.38 2094.79L6.59 2095.59C6.2 2096 6 2096.5 6 2097V2101V2102V2108C6 2109.1 6.89543 2110 8 2110H18C19.1046 2110 20 2109.1 20 2108V2095C20 2094.5 19.8 2094 19.41 2093.59L18.41 2092.59C18 2092.2 17.5 2092 17 2092H11C10.5 2092 10 2092.2 9.59 2092.59L8.79 2093.38L6.71 2091.29C6.53 2091.11 6.28 2091 6 2091ZM11 2096V2094H17V2096H11ZM11.41 2100L9.41 2098H8V2099.41L10 2101.41V2104.59L8 2106.59V2108H9.41L11.41 2106H14.59L16.59 2108H18V2106.59L16 2104.59V2101.41L18 2099.41V2098H16.59L14.59 2100H11.41ZM14 2102H12V2104H14V2102Z" fill="white"/>
<path fill-rule="evenodd" clip-rule="evenodd" d="M19.78 2071.22L19.77 2071.23C20.22 2071.68 20.5 2072.31 20.5 2073V2082.5C20.5 2083.16 20.2366 2083.8 19.7678 2084.27C19.2989 2084.74 18.663 2085 18 2085C16.6193 2085 15.5 2083.88 15.5 2082.5V2077.5H14V2085H4V2069C4 2067.89 4.89 2067 6 2067H12C13.1 2067 14 2067.89 14 2069V2076H15C16.1 2076 17 2076.89 17 2078V2082.5C17 2083.05 17.4477 2083.5 18 2083.5C18.5523 2083.5 19 2083.05 19 2082.5V2075.29C18.69 2075.42 18.36 2075.5 18 2075.5C16.6193 2075.5 15.5 2074.38 15.5 2073C15.5 2071.93 16.17 2071 17.11 2070.67L15 2068.56L16.06 2067.5L19.78 2071.22ZM12 2074H6V2069H12V2074ZM18 2074C17.4477 2074 17 2073.55 17 2073C17 2072.45 17.4477 2072 18 2072C18.5523 2072 19 2072.45 19 2073C19 2073.55 18.5523 2074 18 2074Z" fill="white"/>
<path d="M6.62 2026.79C8.06 2029.62 10.38 2031.94 13.21 2033.38L15.41 2031.18C15.69 2030.9 16.08 2030.82 16.43 2030.93C17.55 2031.3 18.75 2031.5 20 2031.5C20.5523 2031.5 21 2031.95 21 2032.5V2036C21 2036.55 20.5523 2037 20 2037C10.6112 2037 3 2029.39 3 2020C3 2019.73 3.10536 2019.48 3.29289 2019.29C3.48043 2019.11 3.73478 2019 4 2019H7.5C8.05228 2019 8.5 2019.45 8.5 2020C8.5 2021.25 8.7 2022.45 9.07 2023.57C9.18 2023.92 9.1 2024.31 8.82 2024.59L6.62 2026.79Z" fill="white"/>
<path fill-rule="evenodd" clip-rule="evenodd" d="M6 2042L10 2046H9V2049H7V2046H5V2049H3V2046H2L6 2042ZM17 2056H15V2062H12V2057H8V2062H5V2056H3L10 2050L17 2056ZM23 2048L18 2043L13 2048H14V2050.87L15.34 2052H17V2049H19V2052H22V2048H23Z" fill="white"/>
<path fill-rule="evenodd" clip-rule="evenodd" d="M2.38999 1993.73L22.11 2013.46L20.84 2014.73L18.12 2012C16.89 2012.65 15.5 2013 14 2013C10.08 2013 6.74999 2010.5 5.49999 2007H1.99999L2.99999 2005H5.04999L4.99999 2004L5.04999 2003H1.99999L2.99999 2001H5.49999C5.63999 2000.62 5.80999 2000.25 5.99999 1999.89L1.10999 1995L2.38999 1993.73ZM7.06999 2003L6.99999 2004L7.06999 2005H11.12L9.11999 2003H7.06999ZM14 2011C11.21 2011 8.79999 2009.37 7.66999 2007H13.12L16.6 2010.5C15.79 2010.81 14.92 2011 14 2011ZM16.21 2005L17 2005.81L17.35 2005H16.21ZM18.19 2003H14.21L12.21 2001H19.04L18.19 2003ZM8.26999 1997.07L9.69999 1998.5C10.89 1997.58 12.38 1997 14 1997C16.27 1997 18.29 1998.09 19.57 1999.76L20.43 1997.72C18.8 1996.05 16.5 1995 14 1995C11.82 1995 9.82998 1995.78 8.26999 1997.07Z" fill="white"/>
<path fill-rule="evenodd" clip-rule="evenodd" d="M16.36 1977.91C16.69 1978.05 17.11 1978.1 17.5 1978.1C19.45 1978.1 21 1976.55 21 1974.63C21 1974 20.86 1973.5 20.58 1973.03L17.91 1975.7L16.41 1974.2L19.08 1971.53C18.61 1971.25 18.09 1971.11 17.5 1971.11C15.56 1971.11 14 1972.66 14 1974.63C14 1975 14.06 1975.42 14.2 1975.75L12.38 1977.63L10.59 1975.85L11.3 1975.14L9.88999 1973.74L12 1971.58C10.83 1970.41 8.94999 1970.41 7.77999 1971.58L4.21999 1975.14L5.61999 1976.55H2.80999L2.10999 1977.25L5.62999 1980.81L6.32999 1980.11V1977.25L7.77999 1978.66L8.49999 1977.96L10.27 1979.74L2.85999 1987.14L4.96999 1989.25L16.36 1977.91ZM19.78 1989.3L13.78 1983.3L15.89 1981.14L21.89 1987.14L19.78 1989.3Z" fill="white"/>
<path fill-rule="evenodd" clip-rule="evenodd" d="M2 1927C2 1924.79 5.58 1923 10 1923C12.94 1923 15.5 1923.8 16.9 1925L13.39 1928.5L14.39 1929.5H11.5V1930.92C11 1930.97 10.5 1931 10 1931C5.58 1931 2 1929.21 2 1927ZM15.5 1928.5L16.92 1927.08L21.84 1932L16.92 1936.92L15.5 1935.5L18 1933H13V1931H18L15.5 1928.5ZM2 1929V1932C2 1934.21 5.58 1936 10 1936C11.17 1936 12.26 1935.85 13.25 1935.63L14.38 1934.5H11.5V1932.92C11 1932.97 10.5 1933 10 1933C5.58 1933 2 1931.21 2 1929ZM2 1937V1934C2 1936.21 5.58 1938 10 1938C11.9 1938 13.61 1937.66 15 1937.1L16.9 1939C15.5 1940.2 12.94 1941 10 1941C5.58 1941 2 1939.21 2 1937Z" fill="white"/>
<path fill-rule="evenodd" clip-rule="evenodd" d="M8 1965C8 1965.55 8.44772 1966 9 1966H9.5C9.75 1966 10 1965.9 10.2 1965.71L13.9 1962H20C21.1046 1962 22 1961.1 22 1960V1948C22 1946.9 21.1046 1946 20 1946H4C2.9 1946 2 1946.89 2 1948V1960C2 1961.1 2.89543 1962 4 1962H8V1965ZM10 1963.08V1960H4V1948H20V1960H13.08L10 1963.08Z" fill="white"/>
<path d="M10 1904V1900L3 1907L10 1914V1909.9C15 1909.9 18.5 1911.5 21 1915C20 1910 17 1905 10 1904Z" fill="white"/>
<path fill-rule="evenodd" clip-rule="evenodd" d="M4 1875H2V1877H4V1875ZM8 1875H6V1877H8V1875ZM2 1879H4V1881H2V1879ZM8 1879H6V1881H8V1879ZM2 1883H4V1885H2V1883ZM8 1883H6V1885H8V1883ZM2 1887H4V1889H2V1887ZM8 1887H6V1889H8V1887ZM2 1891H4V1893H2V1891ZM8 1891H6V1893H8V1891Z" fill="white"/>
<path fill-rule="evenodd" clip-rule="evenodd" d="M9 1851H3V1855H9V1851ZM21 1858H15V1862H21V1858ZM15 1865H21V1869H15V1865ZM7 1861H13V1859H7V1857H5V1868H7H13V1866H7V1861Z" fill="white"/>
<path fill-rule="evenodd" clip-rule="evenodd" d="M14.82 1828H19C20.1046 1828 21 1828.9 21 1830V1844C21 1845.1 20.1046 1846 19 1846H5C3.89543 1846 3 1845.1 3 1844V1830C3 1828.9 3.89543 1828 5 1828H9.18C9.6 1826.84 10.7 1826 12 1826C13.3 1826 14.4 1826.84 14.82 1828ZM13 1829C13 1828.45 12.5523 1828 12 1828C11.4477 1828 11 1828.45 11 1829C11 1829.55 11.4477 1830 12 1830C12.5523 1830 13 1829.55 13 1829ZM17 1832V1830H19V1844H5V1830H7V1832H17ZM9 1837L7.5 1838.5L11 1842L17 1836L15.5 1834.5L11 1839L9 1837Z" fill="white"/>
<path fill-rule="evenodd" clip-rule="evenodd" d="M21 1811C21 1816.55 17.16 1821.74 12 1823C6.84 1821.74 3 1816.55 3 1811V1805L12 1801L21 1805V1811ZM12 1821C15.75 1820 19 1815.54 19 1811.22V1806.3L12 1803.18L5 1806.3V1811.22C5 1815.54 8.25 1820 12 1821ZM13 1817V1814H11V1817H8V1812H6L12 1807L18 1812H16V1817H13Z" fill="white"/>
<path fill-rule="evenodd" clip-rule="evenodd" d="M19 1795H18V1789H19V1787H18V1781H19V1779H5V1781H6V1787H5V1789H6V1795H5V1797H19V1795ZM12 1792C10.3431 1792 9 1790.66 9 1789C9 1787 12 1783.63 12 1783.63C12 1783.63 15 1787 15 1789C15 1790.66 13.6569 1792 12 1792Z" fill="white"/>
<path d="M22 1766H20V1768H14V1765H16V1763H14V1758C14 1756.9 13.1046 1756 12 1756H4V1754H2V1762H4V1760H10V1763H8V1765H10V1770C10 1771.1 10.8954 1772 12 1772H20V1774H22" fill="white"/>
<path fill-rule="evenodd" clip-rule="evenodd" d="M18 1739H14.82C14.4 1737.84 13.3 1737 12 1737C10.7 1737 9.6 1737.84 9.18 1739H6C5.67 1739 4 1738.9 4 1737V1736C4 1734.17 5.54 1734 6 1734H16.18C16.6 1735.16 17.7 1736 19 1736C20.6569 1736 22 1734.66 22 1733C22 1731.34 20.6569 1730 19 1730C17.7 1730 16.6 1730.84 16.18 1732H6C4.39 1732 2 1733.06 2 1736V1737C2 1739.94 4.39 1741 6 1741H9.18C9.6 1742.16 10.7 1743 12 1743C13.3 1743 14.4 1742.16 14.82 1741H18C18.33 1741 20 1741.1 20 1743V1744C20 1745.83 18.46 1746 18 1746H7.82C7.4 1744.84 6.3 1744 5 1744C3.34315 1744 2 1745.34 2 1747C2 1748.66 3.34315 1750 5 1750C6.3 1750 7.4 1749.16 7.82 1748H18C19.61 1748 22 1746.93 22 1744V1743C22 1740.07 19.61 1739 18 1739ZM19 1732C19.5523 1732 20 1732.45 20 1733C20 1733.55 19.5523 1734 19 1734C18.4477 1734 18 1733.55 18 1733C18 1732.45 18.4477 1732 19 1732ZM4 1747C4 1747.55 4.44772 1748 5 1748C5.55228 1748 6 1747.55 6 1747C6 1746.45 5.55228 1746 5 1746C4.44772 1746 4 1746.45 4 1747Z" fill="white"/>
<path fill-rule="evenodd" clip-rule="evenodd" d="M9.20997 1706.06H14.21C15.19 1706.06 16.04 1706.63 16.45 1707.45L17.45 1709.19L19.18 1708.19L16.54 1712.6L11.39 1712.69L13.12 1711.69L11.71 1709.24L9.49997 1713.09L5.15997 1710.59L6.95997 1707.47C7.36997 1706.64 8.21997 1706.06 9.20997 1706.06ZM21.82 1718.42L19.32 1722.75C18.83 1723.61 17.92 1724.06 17 1724H15V1726L12.5 1721.5L15 1717V1719H17.82L15.6 1715.15L19.93 1712.65L21.73 1715.77C22.25 1716.54 22.32 1717.57 21.82 1718.42ZM2.54997 1718.43L5.04997 1722.76C5.54997 1723.61 6.46997 1724.07 7.39997 1724H11V1719H6.55997L7.96997 1716.56L9.69997 1717.56L7.04997 1713.14L1.90997 1713.06L3.63997 1714.06L2.63997 1715.79C2.12997 1716.56 2.05997 1717.58 2.54997 1718.43Z" fill="white"/>
<path fill-rule="evenodd" clip-rule="evenodd" d="M16.8768 1690.47C17.1094 1690.7 17.3455 1690.93 17.55 1691.2L17.5 1691.21C17.83 1691.59 18.1 1692 18.3 1692.46L18.43 1692.72C19.38 1695 18.73 1697.66 16.93 1699.32C15.32 1700.8 13.07 1701.19 10.97 1700.92C8.99997 1700.67 7.16997 1699.43 6.12997 1697.7C5.80997 1697.17 5.54997 1696.57 5.40997 1695.97C5.23997 1695.47 5.17997 1694.97 5.13997 1694.47C4.99997 1692.3 5.88997 1690 7.52997 1688.64C6.77997 1690.28 6.95997 1692.33 8.05997 1693.76C8.10997 1693.83 8.14997 1693.88 8.20997 1693.93C8.38997 1694.09 8.62997 1694.15 8.84997 1694.05C9.04997 1693.97 9.19997 1693.77 9.19997 1693.55C9.19997 1693.42 9.15997 1693.32 9.11997 1693.22C7.91997 1690.07 8.91997 1686.4 11.46 1684.32C12.16 1683.75 13 1683.23 13.91 1683C13 1684.85 13.3 1687.26 14.76 1688.72C15.1015 1689.06 15.4782 1689.34 15.8552 1689.63C16.1737 1689.87 16.4923 1690.11 16.79 1690.38C16.8188 1690.41 16.8478 1690.44 16.8768 1690.47ZM13.37 1698.1C13.72 1698 14.17 1697.74 14.45 1697.5H14.44C15.04 1696.95 15.39 1696.05 15.36 1695.23C15.36 1695.08 15.34 1694.94 15.3 1694.8C15.1373 1693.92 14.5767 1693.42 13.9955 1692.91C13.6835 1692.63 13.3655 1692.35 13.1 1692C12.87 1691.7 12.67 1691.32 12.5 1690.94C12.22 1691.63 12.2 1692.26 12.32 1693C12.3573 1693.22 12.4094 1693.43 12.4608 1693.64C12.5884 1694.16 12.7112 1694.66 12.59 1695.23C12.39 1696.12 11.69 1697 10.5 1697.28C11.17 1697.94 12.27 1698.5 13.37 1698.1Z" fill="white"/>
<path d="M10 1676V1670H14V1676H19V1668H22L12 1659L2 1668H5V1676H10Z" fill="white"/>
<path fill-rule="evenodd" clip-rule="evenodd" d="M9.57316 1649L14.593 1644.02L9.57316 1639L9 1639.58L13.552 1644L9 1648.44L9.57316 1649Z" fill="white"/>
<path fill-rule="evenodd" clip-rule="evenodd" d="M13 1617V1611H21V1617H13ZM21 1629H13V1619H21V1629ZM3 1629H11V1623H3V1629ZM11 1621H3V1611H11V1621Z" fill="white"/>
<path fill-rule="evenodd" clip-rule="evenodd" d="M6 1586C4.89 1586 4 1586.9 4 1588V1604C4 1605.1 4.89543 1606 6 1606H18C19.1046 1606 20 1605.1 20 1604V1592L14 1586H6ZM13 1587.5L18.5 1593H13V1587.5ZM12.88 1598.05L10.05 1595.22L7.22 1598.05L10.05 1600.88L7.93 1603H15V1595.93L12.88 1598.05Z" fill="white"/>
<path d="M19.35 1570.03C18.67 1566.59 15.64 1564 12 1564C9.11 1564 6.6 1565.64 5.35 1568.03C2.34 1568.36 0 1570.9 0 1574C0 1577.31 2.68629 1580 6 1580H19C20.3261 1580 21.5979 1579.47 22.5355 1578.54C23.4732 1577.6 24 1576.33 24 1575C24 1572.36 21.95 1570.22 19.35 1570.03Z" fill="white"/>
<path d="M15.5 1542V1553.5C15.5 1555.71 13.7091 1557.5 11.5 1557.5C9.29086 1557.5 7.5 1555.71 7.5 1553.5V1541C7.5 1539.62 8.61929 1538.5 10 1538.5C11.3807 1538.5 12.5 1539.62 12.5 1541V1551.5C12.5 1552.05 12.0523 1552.5 11.5 1552.5C10.9477 1552.5 10.5 1552.05 10.5 1551.5V1542H9V1551.5C9 1552.88 10.1193 1554 11.5 1554C12.8807 1554 14 1552.88 14 1551.5V1541C14 1538.79 12.2091 1537 10 1537C7.79086 1537 6 1538.79 6 1541V1553.5C6 1556.54 8.46243 1559 11.5 1559C14.5376 1559 17 1556.54 17 1553.5V1542H15.5Z" fill="white"/>
<path fill-rule="evenodd" clip-rule="evenodd" d="M21 1513C22.1046 1513 23 1513.9 23 1515V1529C23 1530.11 22.11 1531 21 1531H7C5.89543 1531 5 1530.1 5 1529V1515C5 1513.89 5.89 1513 7 1513H21ZM3 1533V1517H1V1533C1 1534.1 1.89543 1535 3 1535H19V1533H3ZM19 1519H9V1517H19V1519ZM9 1523H19V1521H9V1523ZM9 1527H16V1525H9V1527ZM7 1529V1515H21V1529H7Z" fill="white"/>
<path d="M21.5 1493.49L8.81429 1506.18L3 1500.36L4.49057 1498.87L8.81429 1503.18L20.0094 1492L21.5 1493.49Z" fill="white"/>
<path fill-rule="evenodd" clip-rule="evenodd" d="M9 1472C9 1470.34 10.3431 1469 12 1469C13.6569 1469 15 1470.34 15 1472C15 1473.66 13.6569 1475 12 1475C10.3431 1475 9 1473.66 9 1472ZM3.5 1473.67C3.5 1472.29 4.61929 1471.17 6 1471.17C6.37 1471.17 6.72 1471.25 7.04 1471.4C7 1471.6 7 1471.8 7 1472C7 1473.15 7.42 1474.18 8.09 1475.03C7.65 1475.71 6.88 1476.17 6 1476.17C5.33696 1476.17 4.70107 1475.91 4.23223 1475.44C3.76339 1474.97 3.5 1474.33 3.5 1473.67ZM18 1471.17C17.63 1471.17 17.28 1471.25 16.96 1471.4C17 1471.6 17 1471.8 17 1472C17 1473.15 16.58 1474.18 15.91 1475.03C16.35 1475.71 17.12 1476.17 18 1476.17C18.663 1476.17 19.2989 1475.91 19.7678 1475.44C20.2366 1474.97 20.5 1474.33 20.5 1473.67C20.5 1473.01 20.2366 1472.37 19.7678 1471.9C19.2989 1471.43 18.663 1471.17 18 1471.17ZM6 1480C6 1478 10 1477 12 1477C14 1477 18 1478 18 1480V1482H6V1480ZM4.67 1477.97C3 1478.26 1 1479.04 1 1480.33V1482H4V1480C4 1479.22 4.29 1478.53 4.67 1477.97ZM20 1480C20 1479.22 19.71 1478.53 19.33 1477.97C21 1478.26 23 1479.04 23 1480.33V1482H20V1480Z" fill="white"/>
<path fill-rule="evenodd" clip-rule="evenodd" d="M3.72696 1451.75C3.39308 1451.75 3.09374 1451.89 2.87499 1452.11L2 1452.99L7.66441 1457.79C7.96375 1458.1 8.36671 1458.29 8.81572 1458.29H16.2992C17.0015 1458.29 17.6577 1457.79 17.9225 1457.14L17.9571 1456.99C17.9602 1456.98 17.9643 1456.97 17.9685 1456.96C17.9795 1456.94 17.9916 1456.9 17.9916 1456.88L20.9505 1446.46C21.1347 1445.81 20.7893 1445.14 20.1791 1444.96C19.5574 1444.8 18.9126 1445.19 18.7284 1445.84L17.462 1450.29C17.4506 1450.28 17.4391 1450.27 17.4275 1450.26C17.3104 1450.19 17.1837 1450.11 17.0475 1450.06L16.61 1449.86L17.4965 1442.94C17.5771 1442.29 17.1281 1441.71 16.4949 1441.66C15.8617 1441.58 15.286 1442.02 15.2054 1442.65L14.411 1448.89L13.467 1448.47V1441.14C13.467 1440.51 12.9374 1440 12.3157 1440C11.6798 1440 11.1644 1440.51 11.1644 1441.14V1447.52L9.96702 1447.39H9.69071L9.37985 1442.03C9.34531 1441.41 8.79269 1440.93 8.15947 1440.96C7.52626 1440.99 7.04271 1441.54 7.07725 1442.17L7.66441 1452.38V1453.71L3.98024 1451.78L3.72696 1451.75ZM8.81572 1460.57H18.0261V1464H8.81572V1460.57Z" fill="white"/>
<path fill-rule="evenodd" clip-rule="evenodd" d="M20.71 1421.63C21.1 1422 21.1 1422.65 20.71 1423.04L18.87 1424.87L15.12 1421.12L16.96 1419.29C17.35 1418.9 18 1418.9 18.37 1419.29L20.71 1421.63ZM3 1437V1433.25L14.06 1422.18L17.81 1425.93L6.75 1437H3Z" fill="white"/>
<path fill-rule="evenodd" clip-rule="evenodd" d="M10.9 1402.68L1.30001 1412.28C0.910007 1412.67 0.910007 1413.31 1.30001 1413.7C1.69001 1414.09 2.32001 1414.09 2.71001 1413.7L12.32 1404.09L13.73 1405.5L13.03 1406.21C12.63 1406.6 12.63 1407.24 13.03 1407.63L13.73 1408.33C14.12 1408.72 14.76 1408.72 15.15 1408.33L20.8 1402.68C21.19 1402.29 21.19 1401.65 20.8 1401.26L20.1 1400.55C19.71 1400.16 19.07 1400.16 18.68 1400.55L17.97 1401.26L16.56 1399.85C16.95 1399.46 16.95 1398.82 16.56 1398.43C16.17 1398.04 15.54 1398.04 15.15 1398.43L13.73 1397L14.44 1396.31C14.83 1395.92 14.83 1395.29 14.44 1394.9L13.73 1394.19C13.34 1393.8 12.71 1393.8 12.32 1394.19L6.66001 1399.85C6.27001 1400.24 6.27001 1400.87 6.66001 1401.26L7.37001 1401.97C7.76001 1402.36 8.39001 1402.36 8.78001 1401.97L9.50001 1401.26L10.9 1402.68ZM21 1413C21 1411.9 20.1046 1411 19 1411H13C11.8954 1411 11 1411.9 11 1413V1414H21V1413Z" fill="white"/>
<path d="M7 1370V1381H10V1390L17 1378H13L17 1370H7Z" fill="white"/>
<path fill-rule="evenodd" clip-rule="evenodd" d="M19 1348H18V1346H16V1348H8V1346H6V1348H5C3.89 1348 3 1348.9 3 1350V1364C3 1365.1 3.89543 1366 5 1366H19C20.1046 1366 21 1365.1 21 1364V1350C21 1348.9 20.1046 1348 19 1348ZM19 1364H5V1353H19V1364ZM15.47 1355L16.53 1356.06L10.59 1362L7.41 1358.82L8.47 1357.76L10.59 1359.88L15.47 1355Z" fill="white"/>
<path fill-rule="evenodd" clip-rule="evenodd" d="M9.17999 1324C9.59999 1322.8 10.73 1322 12 1322C13.27 1322 14.4 1322.8 14.83 1324H21V1326H19.05L22 1333C22.56 1335 21 1336 18.5 1336C16 1336 14.53 1335 15 1333L17.95 1326H14.82C14.5 1326.85 13.85 1327.5 13 1327.82V1339H22V1341H1.99999V1339H11V1327.83C10.15 1327.5 9.49999 1326.85 9.16999 1326H6.04999L8.99999 1333C9.55999 1335 7.99999 1336 5.49999 1336C2.99999 1336 1.52999 1335 1.99999 1333L4.94999 1326H2.99999V1324H9.17999ZM13 1325C13 1324.45 12.5523 1324 12 1324C11.4477 1324 11 1324.45 11 1325C11 1325.55 11.4477 1326 12 1326C12.5523 1326 13 1325.55 13 1325ZM5.49999 1329.25L6.99999 1333H3.99999L5.49999 1329.25ZM20 1333L18.5 1329.25L17 1333H20Z" fill="white"/>
<path fill-rule="evenodd" clip-rule="evenodd" d="M12 1299C7.58 1299 4 1300.79 4 1303C4 1305.21 7.58 1307 12 1307C16.42 1307 20 1305.21 20 1303C20 1300.79 16.42 1299 12 1299ZM4 1305V1308C4 1310.21 7.58 1312 12 1312C16.42 1312 20 1310.21 20 1308V1305C20 1307.21 16.42 1309 12 1309C7.58 1309 4 1307.21 4 1305ZM4 1313V1310C4 1312.21 7.58 1314 12 1314C16.42 1314 20 1312.21 20 1310V1313C20 1315.21 16.42 1317 12 1317C7.58 1317 4 1315.21 4 1313Z" fill="white"/>
<path d="M22 1278.11L9.33333 1290.78L3.52777 1284.97L5.0161 1283.48L9.33333 1287.79L20.5117 1276.62L22 1278.11Z" fill="white"/>
<path fill-rule="evenodd" clip-rule="evenodd" d="M4 1251.44C12.5936 1251.44 19.56 1258.41 19.56 1267H16.73C16.73 1259.97 11.0306 1254.27 4 1254.27V1251.44ZM6.18 1262.64C7.38398 1262.64 8.36 1263.62 8.36 1264.82C8.36 1266 7.38 1267 6.18 1267C5 1267 4 1266 4 1264.82C4 1263.62 4.97602 1262.64 6.18 1262.64ZM13.9 1267C13.9 1261.53 9.46762 1257.1 4 1257.1V1259.93C5.87508 1259.93 7.67336 1260.67 8.99925 1262C10.3251 1263.33 11.07 1265.12 11.07 1267H13.9Z" fill="white"/>
<path d="M1 1245L22 1236L1 1227V1234L16 1236L1 1238V1245Z" fill="white"/>
<path fill-rule="evenodd" clip-rule="evenodd" d="M13 1202V1205.07C16.95 1205.56 20 1208.92 20 1213C20 1217.08 16.95 1220.44 13 1220.93V1218.91C15.84 1218.43 18 1215.97 18 1213C18 1210.03 15.84 1207.57 13 1207.09V1211L8.45001 1206.55L13 1202ZM11 1220.93C9.61001 1220.76 8.26001 1220.22 7.10001 1219.32L8.54001 1217.87C9.29001 1218.41 10.13 1218.75 11 1218.9V1220.93ZM6.09001 1214H4.07001C4.24001 1215.39 4.79001 1216.73 5.69001 1217.89L7.10001 1216.47C6.58001 1215.72 6.23001 1214.88 6.09001 1214ZM5.70001 1208.11L7.11001 1209.53C6.58001 1210.28 6.23001 1211.13 6.09001 1212H4.07001C4.24001 1210.61 4.80001 1209.27 5.70001 1208.11Z" fill="white"/>
<path fill-rule="evenodd" clip-rule="evenodd" d="M5 1181V1195H19V1188H21V1195C21 1196.1 20.1046 1197 19 1197H5C3.89543 1197 3 1196.1 3 1195V1181C3 1179.9 3.89 1179 5 1179H12V1181H5ZM14 1181V1179H21V1186H19V1182.41L9.17 1192.24L7.76 1190.83L17.59 1181H14Z" fill="white"/>
<path fill-rule="evenodd" clip-rule="evenodd" d="M2 1164C2 1158.48 6.47715 1154 12 1154C14.6522 1154 17.1957 1155.05 19.0711 1156.93C20.9464 1158.8 22 1161.35 22 1164C22 1166.65 20.9464 1169.2 19.0711 1171.07C17.1957 1172.95 14.6522 1174 12 1174C9.34784 1174 6.8043 1172.95 4.92893 1171.07C3.05357 1169.2 2 1166.65 2 1164ZM13 1159V1161H11V1159H13ZM13 1163V1169H11V1163H13Z" fill="white"/>
<path fill-rule="evenodd" clip-rule="evenodd" d="M1 1133H3.2V1146.2H1V1133ZM4.3 1133H5.4V1146.2H4.3V1133ZM9.8 1133H6.5V1146.2H9.8V1133ZM10.9 1133H12V1146.2H10.9V1133ZM16.4 1133H14.2V1146.2H16.4V1133ZM17.5 1133H20.8V1146.2H17.5V1133ZM23 1133H21.9V1146.2H23V1133Z" fill="white"/>
<path fill-rule="evenodd" clip-rule="evenodd" d="M11 1106L15.55 1110.55L11 1115V1111.09C8.16 1111.57 6 1114.03 6 1117C6 1119.97 8.16 1122.43 11 1122.91V1124.93C7.05 1124.44 4 1121.08 4 1117C4 1112.92 7.06 1109.56 11 1109.07V1106ZM19.93 1116C19.76 1114.61 19.21 1113.27 18.31 1112.11L16.89 1113.53C17.43 1114.28 17.77 1115.13 17.91 1116H19.93ZM18.31 1121.89L16.89 1120.5C17.43 1119.72 17.77 1118.87 17.91 1118H19.93C19.76 1119.39 19.21 1120.73 18.31 1121.89ZM13 1124.92V1122.9C13.87 1122.76 14.71 1122.41 15.46 1121.87L16.9 1123.31C15.74 1124.21 14.39 1124.75 13 1124.92Z" fill="white"/>
<path fill-rule="evenodd" clip-rule="evenodd" d="M19.15 1083.55L20.54 1085.23C20.83 1085.57 21 1086 21 1086.5V1099C21 1100.1 20.1046 1101 19 1101H5C3.89543 1101 3 1100.1 3 1099V1086.5C3 1086 3.17 1085.57 3.46 1085.23L4.84 1083.55C5.12 1083.21 5.53 1083 6 1083H18C18.47 1083 18.88 1083.21 19.15 1083.55ZM5.12 1085L5.93 1084H17.93L18.87 1085H5.12ZM12 1097.5L6.5 1092H10V1090H14V1092H17.5L12 1097.5Z" fill="white"/>
<path fill-rule="evenodd" clip-rule="evenodd" d="M15 1065H19L12 1072L5 1065H9V1059H15V1065ZM19 1074V1076H5V1074H19Z" fill="white"/>
<path fill-rule="evenodd" clip-rule="evenodd" d="M3 1037V1039H5V1043H3V1045H5V1049H3V1051H5V1052C5 1053.05 5.95 1054 7 1054H19C20.05 1054 21 1053.05 21 1052V1036C21 1034.95 20.05 1034 19 1034H18V1041L15.5 1039.5L13 1041V1034H7C5.9 1034 5 1034.89 5 1036V1037H3ZM5 1051H7V1049H5V1051ZM5 1045H7V1043H5V1045ZM5 1037H7V1039H5V1037Z" fill="white"/>
<path fill-rule="evenodd" clip-rule="evenodd" d="M14 1010H10C8.89 1010 8 1010.89 8 1012V1014H4C2.89 1014 2 1014.89 2 1016V1027C2 1028.1 2.89 1029 4 1029H20C21.1046 1029 22 1028.1 22 1027V1016C22 1014.9 21.1046 1014 20 1014H16V1012C16 1010.9 15.1046 1010 14 1010ZM14 1012V1014H10V1012H14Z" fill="white"/>
<path fill-rule="evenodd" clip-rule="evenodd" d="M19.5 996C19.5 996.33 19.47 996.65 19.43 996.97L21.54 998.63C21.73 998.78 21.78 999.05 21.66 999.27L19.66 1002.73C19.54 1002.95 19.27 1003.03 19.05 1002.95L16.56 1001.94C16.04 1002.34 15.5 1002.67 14.87 1002.93L14.5 1005.58C14.46 1005.82 14.25 1006 14 1006H10C9.75002 1006 9.54002 1005.82 9.50002 1005.58L9.13002 1002.93C8.50002 1002.68 7.96002 1002.34 7.44002 1001.94L4.95002 1002.95C4.73002 1003.03 4.46002 1002.95 4.34002 1002.73L2.34002 999.27C2.21002 999.05 2.27002 998.78 2.46002 998.63L4.57002 996.97C4.53002 996.65 4.50002 996.33 4.50002 996C4.50002 995.67 4.53002 995.34 4.57002 995L2.46002 993.37C2.27002 993.22 2.21002 992.95 2.34002 992.73L4.34002 989.27C4.46002 989.05 4.73002 988.96 4.95002 989.05L7.44002 990.05C7.96002 989.66 8.50002 989.32 9.13002 989.07L9.50002 986.42C9.54002 986.18 9.75002 986 10 986H14C14.25 986 14.46 986.18 14.5 986.42L14.87 989.07C15.5 989.32 16.04 989.66 16.56 990.05L19.05 989.05C19.27 988.96 19.54 989.05 19.66 989.27L21.66 992.73C21.78 992.95 21.73 993.22 21.54 993.37L19.43 995C19.47 995.34 19.5 995.67 19.5 996ZM8.50002 996C8.50002 997.933 10.067 999.5 12 999.5C13.933 999.5 15.5 997.933 15.5 996C15.5 994.067 13.933 992.5 12 992.5C10.067 992.5 8.50002 994.067 8.50002 996Z" fill="white"/>
<path fill-rule="evenodd" clip-rule="evenodd" d="M5 963H17L21 967V979C21 980.105 20.1046 981 19 981H5C3.89543 981 3 980.105 3 979V965C3 963.9 3.89 963 5 963ZM15 969H5V965H15V969ZM12 979C10.3431 979 9 977.657 9 976C9 974.343 10.3431 973 12 973C13.6569 973 15 974.343 15 976C15 977.657 13.6569 979 12 979Z" fill="white"/>
<path d="M19 949H13V955H11V949H5V947H11V941H13V947H19V949Z" fill="white"/>
<path fill-rule="evenodd" clip-rule="evenodd" d="M18 923V928L20 930V931H4V930L6 928V923C6 919.92 7.63 917.36 10.5 916.68V916C10.5 915.172 11.1716 914.5 12 914.5C12.8284 914.5 13.5 915.172 13.5 916V916.68C16.36 917.36 18 919.93 18 923ZM14 932C14 933.105 13.1046 934 12 934C10.8954 934 10 933.105 10 932H14Z" fill="white"/>
<path fill-rule="evenodd" clip-rule="evenodd" d="M13 892.18C15.86 892.86 18 895.43 18 898.5V904L20 906V907H3V906L5 904V898.5C5 895.43 7.13 892.86 10 892.18V891.5C10 890.672 10.6716 890 11.5 890C12.3284 890 13 890.672 13 891.5V892.18ZM11.9 909.96C11.77 910 11.64 910 11.5 910C10.3954 910 9.5 909.105 9.5 908H13.5C13.5 908.27 13.44 908.54 13.34 908.78C13.09 909.38 12.55 909.82 11.9 909.96ZM19.97 898H21.97C21.82 894.79 20.24 891.97 17.85 890.15L16.42 891.58C18.46 893 19.82 895.35 19.97 898ZM5.15 890.15L6.58 891.58C4.54 893 3.18 895.35 3 898H1C1.18 894.79 2.76 891.97 5.15 890.15Z" fill="white"/>
<path fill-rule="evenodd" clip-rule="evenodd" d="M13 868.18C15.86 868.86 18 871.43 18 874.5V880L20 882V883H3V882L5 880V874.5C5 871.43 7.13 868.86 10 868.18V867.5C10 866.672 10.6716 866 11.5 866C12.3284 866 13 866.672 13 867.5V868.18ZM11.9 885.96C11.77 886 11.64 886 11.5 886C10.3954 886 9.5 885.105 9.5 884H13.5C13.5 884.27 13.44 884.54 13.34 884.78C13.09 885.38 12.55 885.82 11.9 885.96ZM19.97 874H21.97C21.82 870.79 20.24 867.97 17.85 866.15L16.42 867.58C18.46 869 19.82 871.35 19.97 874ZM5.15 866.15L6.58 867.58C4.54 869 3.18 871.35 3 874H1C1.18 870.79 2.76 867.97 5.15 866.15Z" fill="white"/>
<path fill-rule="evenodd" clip-rule="evenodd" d="M13 844.18C15.86 844.86 18 847.43 18 850.5V856L20 858V859H3V858L5 856V850.5C5 847.43 7.13 844.86 10 844.18V843.5C10 842.672 10.6716 842 11.5 842C12.3284 842 13 842.672 13 843.5V844.18ZM11.9 861.96C11.77 862 11.64 862 11.5 862C10.3954 862 9.5 861.105 9.5 860H13.5C13.5 860.27 13.44 860.54 13.34 860.78C13.09 861.38 12.55 861.82 11.9 861.96ZM19.97 850H21.97C21.82 846.79 20.24 843.97 17.85 842.15L16.42 843.58C18.46 845 19.82 847.35 19.97 850ZM5.15 842.15L6.58 843.58C4.54 845 3.18 847.35 3 850H1C1.18 846.79 2.76 843.97 5.15 842.15Z" fill="white"/>
<path fill-rule="evenodd" clip-rule="evenodd" d="M18 827V832L20 834V835H4V834L6 832V827C6 823.92 7.63 821.36 10.5 820.68V820C10.5 819.172 11.1716 818.5 12 818.5C12.8284 818.5 13.5 819.172 13.5 820V820.68C16.36 821.36 18 823.93 18 827ZM14 836C14 837.105 13.1046 838 12 838C10.8954 838 10 837.105 10 836H14Z" fill="white"/>
<path fill-rule="evenodd" clip-rule="evenodd" d="M18 803V808L20 810V811H4V810L6 808V803C6 799.92 7.63 797.36 10.5 796.68V796C10.5 795.172 11.1716 794.5 12 794.5C12.8284 794.5 13.5 795.172 13.5 796V796.68C16.36 797.36 18 799.93 18 803ZM14 812C14 813.105 13.1046 814 12 814C10.8954 814 10 813.105 10 812H14Z" fill="white"/>
<path d="M17.65 774.35C16.2 772.9 14.21 772 12 772C7.58172 772 4 775.582 4 780C4 784.418 7.58172 788 12 788C15.73 788 18.84 785.45 19.73 782H17.65C16.83 784.33 14.61 786 12 786C8.68629 786 6 783.314 6 780C6 776.686 8.68629 774 12 774C13.66 774 15.14 774.69 16.22 775.78L13 779H20V772L17.65 774.35Z" fill="white"/>
<path fill-rule="evenodd" clip-rule="evenodd" d="M4 756C4 751.029 8.02944 747 13 747C17.9706 747 22 751.029 22 756C22 760.971 17.9706 765 13 765C10.94 765 9.04 764.3 7.5 763.14L8.94 761.7C10.09 762.5 11.5 763 13 763C16.866 763 20 759.866 20 756C20 752.134 16.866 749 13 749C9.13401 749 6 752.134 6 756H9L5 760L1 756H4ZM13 754C14.1046 754 15 754.895 15 756C15 757.105 14.1046 758 13 758C11.8954 758 11 757.105 11 756C11 754.895 11.8954 754 13 754Z" fill="white"/>
<path fill-rule="evenodd" clip-rule="evenodd" d="M6 723H18V727H6V723ZM18 731C18 731.552 18.4477 732 19 732C19.5523 732 20 731.552 20 731C20 730.448 19.5523 730 19 730C18.4477 730 18 730.448 18 731ZM16 739H8V734H16V739ZM5 728H19C20.6569 728 22 729.343 22 731V737H18V741H6V737H2V731C2 729.343 3.34315 728 5 728Z" fill="white"/>
<path fill-rule="evenodd" clip-rule="evenodd" d="M6 699H18V703H6V699ZM18 707C18 707.552 18.4477 708 19 708C19.5523 708 20 707.552 20 707C20 706.448 19.5523 706 19 706C18.4477 706 18 706.448 18 707ZM16 715H8V710H16V715ZM5 704H19C20.6569 704 22 705.343 22 707V713H18V717H6V713H2V707C2 705.343 3.34315 704 5 704Z" fill="white"/>
<path fill-rule="evenodd" clip-rule="evenodd" d="M7 678C9.61 678 11.83 679.67 12.65 682H23V686H21V690H17V686H12.65C11.83 688.33 9.61 690 7 690C3.68629 690 1 687.314 1 684C1 680.686 3.68629 678 7 678ZM5 684C5 685.105 5.89543 686 7 686C8.10457 686 9 685.105 9 684C9 682.895 8.10457 682 7 682C5.89543 682 5 682.895 5 684Z" fill="white"/>
<path fill-rule="evenodd" clip-rule="evenodd" d="M7 654C9.61 654 11.83 655.67 12.65 658H23V662H21V666H17V662H12.65C11.83 664.33 9.61 666 7 666C3.68629 666 1 663.314 1 660C1 656.686 3.68629 654 7 654ZM5 660C5 661.105 5.89543 662 7 662C8.10457 662 9 661.105 9 660C9 658.895 8.10457 658 7 658C5.89543 658 5 658.895 5 660Z" fill="white"/>
<path fill-rule="evenodd" clip-rule="evenodd" d="M16.6667 632.667L14.8 634.533L13.3333 633.2L15.2 631.333L13.3333 629.467L14.8 628L16.6667 629.867L18.5333 628L20 629.467L18.1333 631.333L20 633.2L18.5333 634.533L16.6667 632.667ZM4.26667 630.267H10.9333V632.267H4.26667V630.267ZM13.3333 643.067V641.067H20V643.067H13.3333ZM20 639.6V637.6H13.3333V639.6H20ZM6.66667 644H8.66667V641.333H11.3333V639.333H8.66667V636.667H6.66667V639.333H4V641.333H6.66667V644Z" fill="white"/>
<path fill-rule="evenodd" clip-rule="evenodd" d="M6 602H14L20 608V620C20 621.105 19.1046 622 18 622H6C4.89 622 4 621.1 4 620V604C4 602.89 4.89 602 6 602ZM13 609H18.5L13 603.5V609ZM11 612V615H14V617H11V620H9V617H6V615H9V612H11Z" fill="white"/>
<path d="M14 563V570.88C14.04 571.18 13.94 571.5 13.71 571.71C13.32 572.1 12.69 572.1 12.3 571.71L10.29 569.7C10.06 569.47 9.95998 569.16 9.99998 568.87V563H9.96998L4.20998 555.62C3.86998 555.19 3.94998 554.56 4.37998 554.22C4.56998 554.08 4.77998 554 4.99998 554V554H19V554C19.22 554 19.43 554.08 19.62 554.22C20.05 554.56 20.13 555.19 19.79 555.62L14.03 563H14Z" fill="white"/>
<path d="M14 594.88C14.04 595.18 13.94 595.5 13.71 595.71C13.32 596.1 12.69 596.1 12.3 595.71L10.29 593.7C10.06 593.47 9.95998 593.16 9.99998 592.87V587L4.20998 579.62C3.86998 579.19 3.94998 578.56 4.37998 578.22C4.56998 578.08 4.77998 578 4.99998 578H19C19.22 578 19.43 578.08 19.62 578.22C20.05 578.56 20.13 579.19 19.79 579.62L14.03 587L14 594.88Z" fill="white"/>
<path fill-rule="evenodd" clip-rule="evenodd" d="M4 532C4 530.89 4.89 530 6 530H14L20 536V548C20 549.105 19.1046 550 18 550H6C4.89543 550 4 549.105 4 548V532ZM13 531.5V537H18.5L13 531.5Z" fill="white"/>
<path d="M10 508H4C2.89 508 2 508.89 2 510V522C2 523.105 2.89543 524 4 524H20C21.1046 524 22 523.105 22 522V512C22 510.89 21.1 510 20 510H12L10 508Z" fill="white"/>
<path fill-rule="evenodd" clip-rule="evenodd" d="M12 486H20C21.1 486 22 486.89 22 488V498C22 499.105 21.1046 500 20 500H4C2.89543 500 2 499.105 2 498V486C2 484.89 2.89 484 4 484H10L12 486ZM4 488V498H20V488H4Z" fill="white"/>
<path d="M10 473L15 468L10 463V473Z" fill="white"/>
<rect x="12" y="436.857" width="9.04762" height="13.8095" fill="#7C6C6C"/>
<path fill-rule="evenodd" clip-rule="evenodd" d="M12 435.905H21.0476C21.5736 435.905 22 436.331 22 436.857V450.667C22 451.193 21.5736 451.619 21.0476 451.619H12C11.474 451.619 11.0476 451.193 11.0476 450.667V436.857C11.0476 436.331 11.474 435.905 12 435.905ZM21.0476 450.667V436.857H12V450.667H21.0476Z" fill="white"/>
<rect x="16.2857" y="438.286" width="3.33333" height="1.42857" fill="white"/>
<rect x="16.2857" y="440.667" width="3.33333" height="1.42857" fill="white"/>
<rect x="16.2857" y="443.048" width="3.33333" height="1.42857" fill="white"/>
<rect x="16.2857" y="445.429" width="3.33333" height="1.42857" fill="white"/>
<rect x="16.2857" y="447.81" width="3.33333" height="1.42857" fill="white"/>
<rect x="12" y="438.286" width="3.33333" height="1.42857" fill="white"/>
<rect x="12" y="440.667" width="3.33333" height="1.42857" fill="white"/>
<rect x="12" y="443.048" width="3.33333" height="1.42857" fill="white"/>
<rect x="12" y="445.429" width="3.33333" height="1.42857" fill="white"/>
<rect x="12" y="447.81" width="3.33333" height="1.42857" fill="white"/>
<path fill-rule="evenodd" clip-rule="evenodd" d="M13.9048 434L2 436.086V451.914L13.9048 454V434Z" fill="white"/>
<path d="M10.5048 439.714L8.84285 439.814L7.82856 442.195L7.76189 442.41L7.71427 442.571L7.67142 442.729L7.63808 442.857V442.857C7.63808 442.794 7.6238 442.733 7.59523 442.676L7.55237 442.51L7.50475 442.352L7.45237 442.21L6.58094 439.948L4.97618 440.048L6.6857 443.752L4.79523 447.457L6.36189 447.552L7.41427 445.124L7.46189 444.957L7.49999 444.81L7.53332 444.686V444.586V444.586L7.56666 444.762L7.59999 444.91L7.62856 445.024L7.65713 445.105L8.75237 447.695L10.5714 447.81L8.5238 443.729L10.5048 439.714" fill="#7C6C6C"/>
<path fill-rule="evenodd" clip-rule="evenodd" d="M15 417H19L12 424L5 417H9V411H15V417ZM19 426V428H5V426H19Z" fill="white"/>
<path d="M19 342.41L17.59 341L12 346.59L6.41 341L5 342.41L10.59 348L5 353.59L6.41 355L12 349.41L17.59 355L19 353.59L13.41 348L19 342.41Z" fill="white"/>
<path fill-rule="evenodd" clip-rule="evenodd" d="M15.5 364H19V366H5V364H8.5L9.5 363H14.5L15.5 364ZM8 381C6.89543 381 6 380.105 6 379V367H18V379C18 380.105 17.1046 381 16 381H8Z" fill="white"/>
<path d="M17 392.007L15.9929 391L12 394.993L8.00714 391L7 392.007L10.9929 396L7 399.993L8.00714 401L12 397.007L15.9929 401L17 399.993L13.0071 396L17 392.007Z" fill="white"/>
<path d="M9 328.58L13.58 324L9 319.41L10.41 318L16.41 324L10.41 330L9 328.58Z" fill="white"/>
<path fill-rule="evenodd" clip-rule="evenodd" d="M14 294C14 292.895 13.1046 292 12 292C10.8954 292 10 292.895 10 294C10 295.105 10.8954 296 12 296C13.1046 296 14 295.105 14 294ZM12 298C13.1046 298 14 298.895 14 300C14 301.105 13.1046 302 12 302C10.8954 302 10 301.105 10 300C10 298.895 10.8954 298 12 298ZM12 304C13.1046 304 14 304.895 14 306C14 307.105 13.1046 308 12 308C10.8954 308 10 307.105 10 306C10 304.895 10.8954 304 12 304Z" fill="white"/>
<path d="M21.5 269.491L8.81429 282.176L3 276.362L4.49057 274.871L8.81429 279.185L20.0094 268L21.5 269.491Z" fill="white"/>
<path d="M15.6 245.29C14.5 245.19 13.53 246 13.43 247.11L13.18 250H16V252H13L12.56 257.07C12.37 259.27 10.43 260.9 8.22998 260.7C6.91998 260.59 5.81998 259.86 5.16998 258.83L6.66998 257.33C6.90998 258.07 7.56998 258.64 8.39998 258.71C9.49998 258.81 10.47 258 10.57 256.89L11 252H7.99998V250H11.17L11.44 246.93C11.63 244.73 13.57 243.1 15.77 243.3C17.08 243.41 18.18 244.14 18.83 245.17L17.33 246.67C17.09 245.93 16.43 245.36 15.6 245.29Z" fill="white"/>
<path fill-rule="evenodd" clip-rule="evenodd" d="M14.8333 219V220.667H8.16667V219H6.5V220.667H5.66667C4.74167 220.667 4 221.408 4 222.333V234C4 234.92 4.74619 235.667 5.66667 235.667H17.3333C18.2538 235.667 19 234.92 19 234V222.333C19 221.408 18.25 220.667 17.3333 220.667H16.5V219H14.8333ZM17.3333 224.833V234H5.66667V224.833H17.3333ZM11.5 228.167H15.6667V232.333H11.5V228.167Z" fill="white"/>
<path fill-rule="evenodd" clip-rule="evenodd" d="M16 201.5C16 197.91 13.0899 195 9.5 195C5.91015 195 3 197.91 3 201.5C3 205.09 5.91015 208 9.5 208C11.11 208 12.59 207.41 13.73 206.44L14 206.71V207.5L19 212.5L20.5 211L15.5 206H14.71L14.44 205.73C15.41 204.59 16 203.11 16 201.5ZM5 201.5C5 199 7 197 9.5 197C12 197 14 199 14 201.5C14 204 12 206 9.5 206C7 206 5 204 5 201.5Z" fill="white"/>
<path fill-rule="evenodd" clip-rule="evenodd" d="M18 176C19.1046 176 20 176.895 20 178V188C20 189.105 19.1046 190 18 190H6C4.89543 190 4 189.105 4 188V178C4 176.89 4.9 176 6 176H7V174C7 171.239 9.23858 169 12 169C13.3261 169 14.5979 169.527 15.5355 170.464C16.4732 171.402 17 172.674 17 174V176H18ZM12 185C13.1046 185 14 184.105 14 183C14 181.89 13.1 181 12 181C10.8954 181 10 181.895 10 183C10 184.105 10.8954 185 12 185ZM9 174C9 172.343 10.3431 171 12 171C13.6569 171 15 172.343 15 174V176H9V174Z" fill="white"/>
<rect x="12" y="148.857" width="9.04762" height="13.8095" fill="white"/>
<path fill-rule="evenodd" clip-rule="evenodd" d="M12 147.905H21.0476C21.5736 147.905 22 148.331 22 148.857V162.667C22 163.193 21.5736 163.619 21.0476 163.619H12C11.474 163.619 11.0476 163.193 11.0476 162.667V148.857C11.0476 148.331 11.474 147.905 12 147.905ZM21.0476 162.667V148.857H12V162.667H21.0476Z" fill="#7C6C6C"/>
<rect x="16.2857" y="150.286" width="3.33333" height="1.42857" fill="#7C6C6C"/>
<rect x="16.2857" y="152.667" width="3.33333" height="1.42857" fill="#7C6C6C"/>
<rect x="16.2857" y="155.048" width="3.33333" height="1.42857" fill="#7C6C6C"/>
<rect x="16.2857" y="157.429" width="3.33333" height="1.42857" fill="#7C6C6C"/>
<rect x="16.2857" y="159.81" width="3.33333" height="1.42857" fill="#7C6C6C"/>
<rect x="12" y="150.286" width="3.33333" height="1.42857" fill="#7C6C6C"/>
<rect x="12" y="152.667" width="3.33333" height="1.42857" fill="#7C6C6C"/>
<rect x="12" y="155.048" width="3.33333" height="1.42857" fill="#7C6C6C"/>
<rect x="12" y="157.429" width="3.33333" height="1.42857" fill="#7C6C6C"/>
<rect x="12" y="159.81" width="3.33333" height="1.42857" fill="#7C6C6C"/>
<path fill-rule="evenodd" clip-rule="evenodd" d="M13.9048 146L2 148.086V163.914L13.9048 166V146Z" fill="#7C6C6C"/>
<path d="M11.5048 151.714L9.84285 151.814L8.82856 154.195L8.76189 154.41L8.71427 154.571L8.67142 154.729L8.63808 154.857V154.857C8.63808 154.794 8.6238 154.733 8.59523 154.676L8.55237 154.51L8.50475 154.352L8.45237 154.21L7.58094 151.948L5.97618 152.048L7.6857 155.752L5.79523 159.457L7.36189 159.552L8.41427 157.124L8.46189 156.957L8.49999 156.81L8.53332 156.686V156.586V156.586L8.56666 156.762L8.59999 156.91L8.62856 157.024L8.65713 157.105L9.75237 159.695L11.5714 159.81L9.5238 155.729L11.5048 151.714" fill="white"/>
<path fill-rule="evenodd" clip-rule="evenodd" d="M17 127C17 124.239 14.7614 122 12 122C9.23858 122 7 124.239 7 127C7 129.761 9.23858 132 12 132C14.7614 132 17 129.761 17 127ZM22 139.5C22 136.738 17.525 134.5 12 134.5C6.475 134.5 2 136.738 2 139.5V142H22V139.5Z" fill="white"/>
<path fill-rule="evenodd" clip-rule="evenodd" d="M5 97H17V99H5V113H3V99C3 97.8954 3.89543 97 5 97ZM20 101H9C7.89543 101 7 101.895 7 103V117C7 118.105 7.89543 119 9 119H20C21.1046 119 22 118.105 22 117V103C22 101.895 21.1046 101 20 101ZM20 117H9V103H20V117Z" fill="white"/>
<path d="M8.07 83L8 84L8.07 85H18.35L17.5 87H8.67C9.8 89.36 12.21 91 15 91C17.23 91 19.22 89.96 20.5 88.33V91.12C19 92.3 17.07 93 15 93C11.08 93 7.75 90.5 6.5 87H3L4 85H6.05L6 84L6.05 83H3L4 81H6.5C7.75 77.5 11.08 75 15 75C17.5 75 19.8 76.04 21.43 77.71L20.57 79.75C19.29 78.08 17.27 77 15 77C12.21 77 9.8 78.64 8.67 81H20.04L19.19 83H8.07Z" fill="white"/>
<path d="M5.4403 60.6042C3.54027 60.6042 2 59.0639 2 57.1639C2 54.8703 5.4403 51 5.4403 51C5.4403 51 8.8806 54.8703 8.8806 57.1639C8.8806 59.0639 7.34032 60.6042 5.4403 60.6042Z" fill="white"/>
<path d="M17.4403 60.6042C15.5403 60.6042 14 59.0639 14 57.1639C14 54.8703 17.4403 51 17.4403 51C17.4403 51 20.8806 54.8703 20.8806 57.1639C20.8806 59.0639 19.3403 60.6042 17.4403 60.6042Z" fill="white"/>
<path d="M11.4403 69.6042C9.54027 69.6042 8 68.0639 8 66.1639C8 63.8703 11.4403 60 11.4403 60C11.4403 60 14.8806 63.8703 14.8806 66.1639C14.8806 68.0639 13.3403 69.6042 11.4403 69.6042Z" fill="white"/>
<path fill-rule="evenodd" clip-rule="evenodd" d="M2 27H12V31H22V45H2V27ZM4 31H6V29H4V31ZM8 31H10V29H8V31ZM12 43V41H14V39H12V37H14V35H12V33H20V43H12ZM16 35H18V37H16V35ZM16 39H18V41H16V39ZM10 35H8V33H10V35ZM8 39H10V37H8V39ZM10 43H8V41H10V43ZM6 35H4V33H6V35ZM4 39H6V37H4V39ZM6 43H4V41H6V43Z" fill="white"/>
<path fill-rule="evenodd" clip-rule="evenodd" d="M5 3H19C20.1 3 21 3.89 21 5V19C21 20.1046 20.1046 21 19 21H5C3.89543 21 3 20.1046 3 19V15H5V19H19V5H5V9H3V5C3 3.89 3.89 3 5 3ZM11.5 17L10.08 15.58L12.67 13H3V11H12.67L10.08 8.41L11.5 7L16.5 12L11.5 17Z" fill="white"/>
</svg>
