<svg width="120" height="40" viewBox="0 0 120 40" fill="none" xmlns="http://www.w3.org/2000/svg">
<path d="M9.02328 4.90403C9.18362 7.18621 7.47059 9.16343 5.19711 9.32027C2.92364 9.4771 0.950652 7.75417 0.790315 5.47198C0.629979 3.1898 2.34301 1.21258 4.61648 1.05574C6.88995 0.898906 8.86295 2.62184 9.02328 4.90403Z" fill="#109FE2"/>
<path d="M8.99199 5.87982L20.8 13.9C20.8 13.9 20.5 13.9 19.5 14.95C18.5 16 18.5 16.15 18.5 16.15L7.28128 8.53217L8.99199 5.87982Z" fill="#109FE2"/>
<path d="M32.1329 9.98615C30.2268 10.6794 28.1219 9.68987 27.4315 7.77596C26.7411 5.86204 27.7266 3.74851 29.6326 3.05525C31.5387 2.36199 33.6436 3.35152 34.334 5.26544C35.0244 7.17935 34.0389 9.29288 32.1329 9.98615Z" fill="#F6BE27"/>
<path d="M31.2934 10.1968L30.15 13.65C30.15 13.65 30.1831 13.55 28.9 13.05C27.6169 12.55 27.55 12.6 27.55 12.6L28.6137 9.37365L31.2934 10.1968Z" fill="#F6BE27"/>
<path d="M11.1871 18.4467C12.5841 20.265 12.2486 22.8762 10.4377 24.2789C8.62688 25.6817 6.02641 25.3448 4.62943 23.5264C3.23245 21.7081 3.56797 19.0969 5.37883 17.6942C7.1897 16.2915 9.79017 16.6284 11.1871 18.4467Z" fill="#5FB878"/>
<path d="M11.7296 19.3814L17.1096 19.3814C17.1096 19.3814 16.9 20.0714 16.9 21C16.9 21.9286 17 22.5151 17 22.5151L11.7602 22.5151L11.7296 19.3814Z" fill="#5FB878"/>
<path d="M108.075 23.6902C106.657 21.8878 106.963 19.273 108.758 17.8498C110.553 16.4266 113.157 16.7339 114.575 18.5363C115.992 20.3386 115.686 22.9535 113.891 24.3767C112.096 25.7999 109.492 25.4925 108.075 23.6902Z" fill="#F24E55"/>
<path d="M107.522 22.7617L102.181 22.7617C102.181 22.7617 102.35 21.8214 102.35 21.25C102.35 20.6786 102.181 19.6285 102.181 19.6285L107.456 19.6285L107.522 22.7617Z" fill="#F24E55"/>
<path d="M20.6806 31.8156C22.4274 31.2685 24.2852 32.2468 24.8301 34.0008C25.375 35.7548 24.4007 37.6203 22.6538 38.1674C20.907 38.7146 19.0492 37.7362 18.5043 35.9822C17.9594 34.2282 18.9338 32.3628 20.6806 31.8156Z" fill="#E10079"/>
<path d="M21.446 31.66L22.4 29.25C23.25 29.65 23.829 29.7 24.75 29.85L23.829 32.5118L21.446 31.66Z" fill="#E10079"/>
<path d="M19.2319 23.5706L22.0826 23.2953C22.1374 23.7908 22.2333 24.0385 22.4389 24.3137C22.7678 24.7265 23.3434 24.9605 24.0424 24.9605C25.0977 24.9605 25.7281 24.4926 25.7281 23.7219C25.7281 23.2953 25.5088 22.9238 25.1525 22.7586C24.8647 22.621 24.5221 22.5247 23.0967 22.1944C21.8359 21.9192 21.3973 21.7541 20.8902 21.3963C20.0268 20.7908 19.5609 19.8687 19.5609 18.7541C19.5609 16.6348 21.2603 15.2999 23.9602 15.2999C25.7007 15.2999 27.0301 15.8366 27.7701 16.8687C28.1128 17.3229 28.2772 17.7357 28.4554 18.5201L25.5499 18.8366C25.3855 17.9421 24.8921 17.5706 23.8505 17.5706C23.0145 17.5706 22.3978 18.0247 22.3978 18.6577C22.3978 19.043 22.6034 19.332 23.0419 19.5385C23.316 19.6623 23.316 19.6623 24.9332 19.9926C25.9748 20.2128 26.6326 20.4467 27.1534 20.777C28.1402 21.3963 28.6336 22.3183 28.6336 23.5843C28.6336 24.6164 28.3046 25.4972 27.6742 26.1164C26.8793 26.8871 25.6733 27.2862 24.0698 27.2862C22.9049 27.2862 21.7537 27.0385 21.0136 26.6119C20.3283 26.2265 19.8212 25.6348 19.5334 24.8504C19.3964 24.5201 19.3279 24.2036 19.2319 23.5706Z" fill="#515A5B"/>
<path d="M35.8927 18.0109V24.9467C35.8927 25.7724 35.9201 26.3779 36.0023 27.0247H32.9735C33.0558 26.3779 33.0832 25.8137 33.0832 24.9467V18.0109H31.466C30.6026 18.0109 30.3696 18.0247 29.3965 18.1073V15.4788C29.8488 15.5339 30.6026 15.5752 31.4386 15.5752H37.4414C38.4007 15.5752 38.9489 15.5476 39.5793 15.4788V18.1073C38.9626 18.0385 38.4281 18.0109 37.4414 18.0109H35.8927Z" fill="#515A5B"/>
<path d="M48.1647 15.5752H51.1249C51.0427 16.1669 51.0153 16.6623 51.0153 17.6531V22.3871C51.0153 25.5247 49.1377 27.2999 45.8348 27.2999C44.1354 27.2999 42.7512 26.8183 41.9289 25.9513C41.134 25.0981 40.7229 23.9008 40.7229 22.3596V17.6531C40.7229 16.7036 40.6954 16.0981 40.6132 15.5752H43.5735C43.4913 16.0843 43.4639 16.6348 43.4639 17.6531V22.3871C43.4639 24.121 44.245 24.9467 45.8485 24.9467C47.4931 24.9467 48.2743 24.121 48.2743 22.3871V17.6531C48.2743 16.621 48.2469 16.1944 48.1647 15.5752Z" fill="#515A5B"/>
<path d="M52.9164 25.0568V17.5568C52.9164 16.621 52.889 16.1669 52.7931 15.5339C53.3413 15.5614 53.6839 15.5752 54.8214 15.5752H57.6858C59.3715 15.5752 60.7283 16.043 61.6465 16.9375C62.647 17.9284 63.1541 19.3733 63.1541 21.2036C63.1541 23.0889 62.6059 24.6027 61.5643 25.6485C60.6461 26.5568 59.3441 27.0247 57.7132 27.0247H54.8214C53.7662 27.0247 53.3824 27.0385 52.8068 27.066C52.889 26.4605 52.9164 26.0063 52.9164 25.0568ZM55.63 24.6164H57.4665C58.3573 24.6164 58.9878 24.3825 59.4811 23.8871C60.043 23.3091 60.3446 22.3871 60.3446 21.2449C60.3446 20.0752 60.0842 19.2219 59.5497 18.6852C59.07 18.2036 58.4122 17.9834 57.4254 17.9834H55.63V24.6164Z" fill="#515A5B"/>
<path d="M69.9775 22.4421V24.988C69.9775 25.7036 70.0049 26.3091 70.0871 27.0247H67.0994C67.1679 26.3917 67.209 25.7586 67.209 24.988V22.4421L64.0569 17.2403C63.8102 16.8137 63.5087 16.3596 62.9605 15.5752H66.4279C66.5786 16.0568 66.7294 16.4146 67.072 17.0201L68.5932 19.8137L70.1145 17.0339C70.4571 16.4008 70.649 15.9742 70.7449 15.5752H74.2123C73.8148 16.1531 73.2941 16.9375 73.1159 17.2403L69.9775 22.4421Z" fill="#515A5B"/>
<path d="M84.6165 19.0155L81.7933 19.566C81.5329 18.3137 80.8065 17.6944 79.6279 17.6944C77.9559 17.6944 76.9828 19.0155 76.9828 21.2862C76.9828 23.5293 77.997 24.8917 79.6964 24.8917C80.4502 24.8917 81.0943 24.5752 81.4918 24.0247C81.7248 23.6944 81.8207 23.4192 81.9029 22.8412L84.7536 23.2678C84.4932 24.4375 84.1917 25.1119 83.6161 25.7862C82.7663 26.7632 81.437 27.2862 79.7787 27.2862C78.1067 27.2862 76.695 26.7632 75.722 25.7724C74.7078 24.7403 74.1322 23.1302 74.1322 21.2862C74.1322 19.4146 74.7078 17.832 75.7905 16.7586C76.7362 15.8366 78.1204 15.3274 79.7238 15.3274C81.4918 15.3274 82.876 15.933 83.7668 17.1302C84.2054 17.6944 84.4384 18.2036 84.6165 19.0155Z" fill="#515A5B"/>
<path d="M91.246 15.3274C94.6174 15.3274 96.7691 17.6394 96.7691 21.2449C96.7691 24.8779 94.5626 27.2862 91.2323 27.2862C87.8746 27.2862 85.7092 24.933 85.7092 21.2862C85.7092 17.6531 87.8746 15.3274 91.246 15.3274ZM91.246 24.9054C92.9043 24.9054 93.9185 23.5293 93.9185 21.2724C93.9185 19.043 92.9043 17.6944 91.246 17.6944C89.574 17.6944 88.5461 19.0568 88.5461 21.2724C88.5461 23.5155 89.574 24.9054 91.246 24.9054Z" fill="#515A5B"/>
</svg>
