<svg width="146" height="24" viewBox="0 0 146 24" fill="none" xmlns="http://www.w3.org/2000/svg">
<path d="M25.0597 0.108887H0.109009V23.8907L25.0597 23.8907L25.0597 0.108887ZM23.8777 11.9764H20.9029C19.977 11.8169 19.317 10.5598 20.0262 10.0157C20.6665 9.56534 21.0901 8.84298 21.0901 8.03618C21.0901 6.68526 19.9573 5.6064 18.5389 5.6064C17.1204 5.6064 15.9876 6.68526 15.9876 8.03618C15.9876 8.84298 16.4112 9.56534 17.0515 10.0157C17.7607 10.5785 17.1007 11.8638 16.1058 11.9764H12.5794V8.61782V8.57092C12.5794 7.65154 11.23 6.97608 10.6685 7.6234C10.2449 8.18628 9.53572 8.57092 8.75754 8.57092C7.45731 8.57092 6.39348 7.55773 6.39348 6.31938C6.39348 5.08104 7.45731 4.06785 8.75754 4.06785C9.56527 4.06785 10.2449 4.45249 10.6685 5.01537C11.2398 5.67207 12.5794 4.96846 12.5794 4.09599V1.23467H23.8777V11.9764ZM1.29104 12.0233H4.24612C5.17205 12.1828 5.83201 13.4399 5.1228 13.984C4.48253 14.4343 4.05897 15.1567 4.05897 15.9635C4.05897 17.3144 5.19175 18.3932 6.61019 18.3932C8.02862 18.3932 9.1614 17.3144 9.1614 15.9635C9.1614 15.1567 8.73784 14.4343 8.09758 13.984C7.38836 13.4211 8.04832 12.1171 9.0432 12.0233H12.5696V15.3818V15.4287C12.5696 16.3481 13.9191 17.0236 14.4805 16.3762C14.9041 15.8134 15.6133 15.4287 16.3915 15.4287C17.6917 15.4287 18.7556 16.4419 18.7556 17.6802C18.7556 18.9186 17.6917 19.9318 16.3915 19.9318C15.5838 19.9318 14.9041 19.5471 14.4805 18.9843C13.9092 18.3276 12.5696 19.0312 12.5696 19.9036V22.765H1.29104V12.0233Z" fill="#F24E55"/>
<path d="M40.3601 8.47353C40.2937 7.8028 40.0089 7.28173 39.5056 6.91033C39.0024 6.53894 38.3194 6.35324 37.4567 6.35324C36.8704 6.35324 36.3755 6.43639 35.9718 6.60269C35.5681 6.76344 35.2584 6.98794 35.0427 7.27619C34.8325 7.56444 34.7275 7.89149 34.7275 8.25734C34.7164 8.56222 34.78 8.8283 34.9182 9.05557C35.062 9.28284 35.2584 9.47963 35.5072 9.64592C35.7561 9.80668 36.0437 9.94803 36.3699 10.07C36.6962 10.1864 37.0446 10.2862 37.4152 10.3693L38.9415 10.7352C39.6826 10.9015 40.3628 11.1232 40.9822 11.4004C41.6016 11.6775 42.1381 12.0184 42.5915 12.4231C43.045 12.8277 43.3962 13.3045 43.6451 13.8532C43.8995 14.402 44.0294 15.0312 44.0349 15.7407C44.0294 16.7828 43.764 17.6864 43.2386 18.4514C42.7187 19.2108 41.9666 19.8011 40.9822 20.2224C40.0034 20.6382 38.8226 20.846 37.4401 20.846C36.0685 20.846 34.874 20.6354 33.8564 20.2141C32.8444 19.7928 32.0535 19.1692 31.4839 18.3433C30.9198 17.5118 30.624 16.4835 30.5963 15.2585H34.0721C34.1108 15.8294 34.274 16.3061 34.5615 16.6886C34.8546 17.0655 35.2445 17.351 35.7312 17.545C36.2234 17.7335 36.7792 17.8277 37.3986 17.8277C38.0069 17.8277 38.5351 17.739 38.983 17.5617C39.4365 17.3843 39.7877 17.1376 40.0365 16.8216C40.2854 16.5057 40.4098 16.1426 40.4098 15.7324C40.4098 15.3499 40.2965 15.0284 40.0697 14.7679C39.8485 14.5073 39.5222 14.2856 39.0909 14.1027C38.665 13.9198 38.1424 13.7535 37.523 13.6038L35.6731 13.1382C34.2408 12.7889 33.1098 12.2429 32.2803 11.5001C31.4507 10.7573 31.0387 9.75679 31.0443 8.49847C31.0387 7.46743 31.3125 6.56665 31.8655 5.79615C32.4241 5.02563 33.19 4.42419 34.1634 3.99182C35.1367 3.55945 36.2428 3.34326 37.4815 3.34326C38.7425 3.34326 39.843 3.55945 40.7831 3.99182C41.7288 4.42419 42.4643 5.02563 42.9897 5.79615C43.5151 6.56665 43.7861 7.45912 43.8027 8.47353H40.3601Z" fill="white"/>
<path d="M45.804 6.54448V3.57608H59.7569V6.54448H54.5557V20.6049H51.0052V6.54448H45.804Z" fill="white"/>
<path d="M72.5485 3.57608H76.1404V14.6348C76.1404 15.8765 75.8446 16.963 75.2528 17.8943C74.6666 18.8255 73.8454 19.5517 72.7891 20.0728C71.7328 20.5883 70.5023 20.846 69.0976 20.846C67.6874 20.846 66.4541 20.5883 65.3978 20.0728C64.3415 19.5517 63.5203 18.8255 62.9341 17.8943C62.3479 16.963 62.0548 15.8765 62.0548 14.6348V3.57608H65.6467V14.3272C65.6467 14.9757 65.7877 15.5522 66.0698 16.0567C66.3573 16.5611 66.761 16.9575 67.2809 17.2457C67.8007 17.5339 68.4063 17.6781 69.0976 17.6781C69.7944 17.6781 70.4 17.5339 70.9143 17.2457C71.4341 16.9575 71.8351 16.5611 72.1171 16.0567C72.4047 15.5522 72.5485 14.9757 72.5485 14.3272V3.57608Z" fill="white"/>
<path d="M85.1182 20.6049H79.0957V3.57608H85.168C86.8768 3.57608 88.3479 3.91699 89.5811 4.59881C90.8144 5.27508 91.7629 6.24792 92.4265 7.51732C93.0957 8.78672 93.4302 10.3056 93.4302 12.0739C93.4302 13.8477 93.0957 15.3721 92.4265 16.647C91.7629 17.922 90.8089 18.9004 89.5646 19.5822C88.3258 20.264 86.8436 20.6049 85.1182 20.6049ZM82.6876 17.5201H84.9689C86.0307 17.5201 86.9238 17.3316 87.6483 16.9547C88.3783 16.5722 88.9258 15.9818 89.2908 15.1836C89.6613 14.3798 89.8466 13.3433 89.8466 12.0739C89.8466 10.8155 89.6613 9.78728 89.2908 8.98905C88.9258 8.19082 88.3811 7.60324 87.6566 7.2263C86.9321 6.84936 86.039 6.66089 84.9772 6.66089H82.6876V17.5201Z" fill="white"/>
<path d="M94.069 3.57608H98.0923L101.966 10.9098H102.132L106.006 3.57608H110.029L103.833 14.5849V20.6049H100.266V14.5849L94.069 3.57608Z" fill="white"/>
<path d="M125.955 9.53783H122.321C122.255 9.06665 122.119 8.64814 121.915 8.28229C121.71 7.91089 121.447 7.59492 121.127 7.33439C120.806 7.07386 120.435 6.8743 120.015 6.73572C119.6 6.59714 119.15 6.52785 118.663 6.52785C117.784 6.52785 117.018 6.74681 116.365 7.18473C115.713 7.6171 115.206 8.24903 114.847 9.08051C114.488 9.90645 114.308 10.9098 114.308 12.0905C114.308 13.3045 114.488 14.3244 114.847 15.1504C115.212 15.9763 115.721 16.5999 116.373 17.0212C117.026 17.4425 117.781 17.6531 118.638 17.6531C119.119 17.6531 119.564 17.5894 119.974 17.4619C120.388 17.3344 120.756 17.1487 121.077 16.9048C121.398 16.6553 121.663 16.3532 121.873 15.9985C122.089 15.6437 122.238 15.239 122.321 14.7845L125.955 14.8011C125.861 15.5827 125.626 16.3366 125.25 17.0628C124.879 17.7834 124.379 18.4292 123.748 19.0001C123.123 19.5655 122.377 20.0145 121.508 20.3471C120.646 20.6742 119.669 20.8377 118.58 20.8377C117.065 20.8377 115.71 20.494 114.515 19.8067C113.326 19.1193 112.386 18.1243 111.695 16.8216C111.009 15.519 110.666 13.9419 110.666 12.0905C110.666 10.2335 111.015 8.65368 111.711 7.35102C112.408 6.04836 113.354 5.05612 114.548 4.3743C115.743 3.68694 117.087 3.34326 118.58 3.34326C119.564 3.34326 120.477 3.48184 121.317 3.759C122.164 4.03617 122.913 4.44082 123.566 4.97297C124.218 5.49958 124.749 6.14537 125.158 6.91033C125.573 7.6753 125.839 8.55113 125.955 9.53783Z" fill="white"/>
<path d="M144.142 12.0905C144.142 13.9475 143.791 15.5273 143.089 16.83C142.392 18.1326 141.441 19.1276 140.235 19.815C139.035 20.4968 137.686 20.8377 136.187 20.8377C134.677 20.8377 133.322 20.494 132.122 19.8067C130.922 19.1193 129.974 18.1243 129.277 16.8216C128.58 15.519 128.232 13.9419 128.232 12.0905C128.232 10.2335 128.58 8.65368 129.277 7.35102C129.974 6.04836 130.922 5.05612 132.122 4.3743C133.322 3.68694 134.677 3.34326 136.187 3.34326C137.686 3.34326 139.035 3.68694 140.235 4.3743C141.441 5.05612 142.392 6.04836 143.089 7.35102C143.791 8.65368 144.142 10.2335 144.142 12.0905ZM140.501 12.0905C140.501 10.8876 140.321 9.8732 139.962 9.04725C139.608 8.22131 139.107 7.59493 138.46 7.1681C137.813 6.74127 137.055 6.52785 136.187 6.52785C135.319 6.52785 134.561 6.74127 133.914 7.1681C133.267 7.59493 132.764 8.22131 132.404 9.04725C132.05 9.8732 131.873 10.8876 131.873 12.0905C131.873 13.2934 132.05 14.3078 132.404 15.1337C132.764 15.9597 133.267 16.5861 133.914 17.0129C134.561 17.4397 135.319 17.6531 136.187 17.6531C137.055 17.6531 137.813 17.4397 138.46 17.0129C139.107 16.5861 139.608 15.9597 139.962 15.1337C140.321 14.3078 140.501 13.2934 140.501 12.0905Z" fill="white"/>
</svg>
