<svg width="24" height="24" viewBox="0 0 24 24" fill="none" xmlns="http://www.w3.org/2000/svg">
<path fill-rule="evenodd" clip-rule="evenodd" d="M11.8857 9.94286C11.8857 6.66071 9.22501 4 5.94286 4C2.66071 4 0 6.66071 0 9.94286C0 13.225 2.66071 15.8857 5.94286 15.8857C7.41486 15.8857 8.768 15.3463 9.81029 14.4594L10.0571 14.7063V15.4286L14.6286 20L16 18.6286L11.4286 14.0571H10.7063L10.4594 13.8103C11.3463 12.768 11.8857 11.4149 11.8857 9.94286ZM1.82857 9.94286C1.82857 7.65714 3.65714 5.82857 5.94286 5.82857C8.22857 5.82857 10.0571 7.65714 10.0571 9.94286C10.0571 12.2286 8.22857 14.0571 5.94286 14.0571C3.65714 14.0571 1.82857 12.2286 1.82857 9.94286Z" fill="#7C6C6C"/>
</svg>
