<svg width="40" height="40" viewBox="0 0 40 40" fill="none" xmlns="http://www.w3.org/2000/svg">
<path fill-rule="evenodd" clip-rule="evenodd" d="M26.6667 15.8333C26.6667 9.85025 21.8164 5 15.8333 5C9.85025 5 5 9.85025 5 15.8333C5 21.8164 9.85025 26.6667 15.8333 26.6667C18.5167 26.6667 20.9833 25.6833 22.8833 24.0667L23.3333 24.5167V25.8333L31.6667 34.1667L34.1667 31.6667L25.8333 23.3333H24.5167L24.0667 22.8833C25.6833 20.9833 26.6667 18.5167 26.6667 15.8333ZM8.33333 15.8333C8.33333 11.6667 11.6667 8.33333 15.8333 8.33333C20 8.33333 23.3333 11.6667 23.3333 15.8333C23.3333 20 20 23.3333 15.8333 23.3333C11.6667 23.3333 8.33333 20 8.33333 15.8333Z" fill="#7C6C6C"/>
</svg>
